<?xml version="1.0" standalone="no"?>
<!DOCTYPE svg PUBLIC "-//W3C//DTD SVG 1.1//EN" "http://www.w3.org/Graphics/SVG/1.1/DTD/svg11.dtd" >
<svg xmlns="http://www.w3.org/2000/svg">
<metadata>Generated by IcoMoon</metadata>
<defs>
<font id="zingbox-icon" horiz-adv-x="1024">
<font-face units-per-em="1024" ascent="960" descent="-64" />
<missing-glyph horiz-adv-x="1024" />
<glyph unicode="&#x20;" horiz-adv-x="512" d="" />
<glyph unicode="&#xe900;" glyph-name="author" d="M1007.543-64h-98.743c-8.837 0-16 7.163-16 16s7.163 16 16 16v0h82.926c-7.003 204.331-140.64 375.698-324.575 438.549l-3.38 1.003c-19.898-10.745-43-19.958-67.219-26.437l-2.267-0.516-0.603-0.165c-24.518-6.59-52.667-10.375-81.701-10.375s-57.183 3.785-83.981 10.889l2.281-0.514c-26.696 7.018-49.989 16.289-71.797 27.971l1.744-0.853c-192.353-65.539-328.247-244.629-328.247-455.459 0-0.020 0-0.039 0-0.059v0.003c-0.3-8.601-7.344-15.459-15.991-15.459s-15.691 6.858-15.99 15.432l-0.001 0.027c0.054 227.179 148.004 419.787 352.803 486.783l3.622 1.025c1.556 0.559 3.35 0.882 5.221 0.882s3.665-0.323 5.332-0.917l-0.111 0.034c1.273-0.432 2.373-0.958 3.397-1.594l-0.069 0.040c19.551-11.032 42.181-20.29 66.008-26.605l2.033-0.458c22.108-5.897 47.491-9.285 73.664-9.285s51.556 3.387 75.732 9.747l-2.068-0.462 0.786 0.201c25.828 6.814 48.424 16.113 69.402 27.944l-1.452-0.753c2.285 1.334 5.031 2.121 7.961 2.121 1.729 0 3.393-0.274 4.953-0.781l-0.113 0.032c208.512-67.861 356.615-260.364 356.901-487.5v-0.455c-0.010-8.842-7.176-16.008-16.017-16.018h-0.001zM279.058-64c-8.837 0-16 7.163-16 16s7.163 16 16 16v0h533.943c-0.796 14.782-2.617 28.581-5.414 42.021l0.312-1.792c-4.146 20.399-9.827 38.316-17.152 55.359l0.695-1.818c-0.731 1.763-1.155 3.811-1.155 5.958 0 8.806 7.139 15.945 15.945 15.945 6.482 0 12.061-3.868 14.554-9.423l0.040-0.101c15.589-36.011 24.666-77.944 24.686-121.995v-0.007c0-0.033 0-0.071 0-0.11 0-8.857-7.18-16.037-16.037-16.037-0.013 0-0.026 0-0.039 0h0.002zM95.378-64c-8.837 0-16 7.163-16 16s7.163 16 16 16v0h83.602c0.901 17.020 2.99 32.922 6.209 48.409l-0.357-2.055c4.646 22.733 11.007 42.697 19.206 61.68l-0.774-2.014c2.565 5.576 8.103 9.377 14.53 9.377 8.806 0 15.945-7.139 15.945-15.945 0-2.085-0.4-4.076-1.128-5.901l0.038 0.108c-6.662-15.221-12.378-33.134-16.25-51.723l-0.317-1.817c-3.489-16.713-5.486-35.918-5.486-55.59 0-0.18 0-0.359 0-0.539v0.028c-0.010-8.849-7.186-16.018-16.037-16.018v0zM551.717 14.080l-39.735 109.714-39.68-109.714c-2.289-6.201-8.148-10.542-15.022-10.542-8.822 0-15.973 7.151-15.973 15.973 0 1.948 0.349 3.815 0.987 5.541l-0.036-0.111 54.656 151.058c1.642 4.529 5.118 8.047 9.507 9.709l0.111 0.037c1.622 0.609 3.497 0.962 5.454 0.962 6.855 0 12.7-4.326 14.953-10.397l0.036-0.11 54.857-151.241c0.603-1.616 0.952-3.483 0.952-5.431 0-8.822-7.151-15.973-15.973-15.973-6.874 0-12.733 4.341-14.986 10.432l-0.036 0.111zM500.681 218.88l-49.609 49.609c-2.882 2.893-4.664 6.884-4.664 11.291s1.782 8.398 4.665 11.292l49.608 49.608c2.893 2.897 6.892 4.69 11.31 4.69s8.417-1.792 11.31-4.69v0l49.609-49.609c2.891-2.889 4.679-6.881 4.679-11.291s-1.788-8.402-4.679-11.291l-49.609-49.609c-2.899-2.884-6.896-4.667-11.31-4.667s-8.411 1.783-11.31 4.668l0.001-0.001zM485.047 279.771l26.953-26.935 26.971 26.935-26.971 26.99zM325.358 509.33c-47.756 47.847-77.288 113.899-77.288 186.849 0 24.466 3.322 48.156 9.539 70.644l-0.438-1.858c0.203 1.076 0.468 2.014 0.807 2.917l-0.039-0.12q2.377 8.411 5.285 16.585v0l0.64 1.829c7.219 19.617 15.716 36.504 25.844 52.242l-0.628-1.042 0.091 0.146 0.841 1.298 0.238 0.384 0.731 1.115 0.274 0.439 0.695 1.061 0.823 1.243 0.347 0.512 0.695 1.006 0.256 0.366 0.75 1.097 0.146 0.219 0.841 1.189c12.542 17.731 26.458 33.173 41.982 46.831l0.295 0.254 0.841 0.75 0.823 0.713 0.256 0.219c45.088 39.078 104.145 63.111 168.801 63.779l0.141 0.001h17.481l3.657-0.219h1.317c137.124-10.486 244.415-124.328 244.415-263.23 0-72.866-29.526-138.837-77.266-186.6l0.001 0.001c-47.758-47.768-113.741-77.313-186.624-77.313s-138.866 29.546-186.624 77.313v0zM280.009 696.009c0-0.002 0-0.005 0-0.008 0-128.135 103.874-232.009 232.009-232.009 64.033 0 122.008 25.941 163.988 67.886l-0.001-0.001c41.972 42.115 67.923 100.221 67.923 164.387 0 17.643-1.962 34.828-5.68 51.349l0.294-1.555h-190.482c-38.818 0.049-73.938 15.844-99.323 41.339l-0.005 0.005v0.128c-9.894 9.911-18.34 21.272-24.988 33.737l-0.374 0.768c-7.016-13.235-15.462-24.598-25.363-34.506l0.001 0.001c-25.392-25.494-60.512-41.282-99.32-41.326h-13.247c-3.452-15.031-5.431-32.292-5.431-50.015 0-0.070 0-0.139 0-0.209v0.011zM439.351 886.857c0.009-30.002 12.189-57.157 31.87-76.798l0.002-0.002 0.091-0.128c19.64-19.679 46.794-31.854 76.791-31.854 0.003 0 0.006 0 0.009 0h181.028c-32.913 85.12-112.213 145.264-206.092 149.667l-0.519 0.019h-1.609l-2.907 0.091h-10.624c-24.471-0.467-47.803-4.66-69.673-12.034l1.631 0.477zM298.551 778.149c29.997 0.017 57.148 12.187 76.799 31.853l0.001 0.001c19.731 19.641 31.942 46.822 31.945 76.854v16.275q-7.314-3.657-14.354-7.918l-0.293-0.165-0.603-0.366c-37.847-23.252-67.924-55.84-87.524-94.625l-0.613-1.339q-4.955-10.039-8.96-20.571zM472.978 503.625c-14.234 2.905-26.735 6.881-38.623 12.005l1.266-0.485c-5.522 2.586-9.278 8.097-9.278 14.484 0 8.806 7.139 15.945 15.945 15.945 2.040 0 3.991-0.383 5.784-1.081l-0.109 0.037c8.89-3.887 19.356-7.231 30.216-9.504l1.071-0.188c9.786-2.035 21.032-3.2 32.551-3.2 0.070 0 0.14 0 0.21 0h-0.011c0.326-0.002 0.712-0.004 1.098-0.004 22.722 0 44.344 4.71 63.943 13.206l-1.041-0.402c1.763 0.731 3.811 1.155 5.958 1.155 8.806 0 15.945-7.139 15.945-15.945 0-6.482-3.868-12.061-9.423-14.554l-0.101-0.040c-10.627-4.646-23.127-8.622-36.102-11.303l-1.256-0.217c-11.728-2.515-25.202-3.956-39.013-3.956s-27.285 1.441-40.28 4.18l1.268-0.224z" />
<glyph unicode="&#xe901;" glyph-name="book" horiz-adv-x="802" d="M16.18-64v0c-8.805 0.010-15.942 7.14-15.961 15.943v0.002l-0.218 990.431v1.68c0.038 8.814 7.192 15.945 16.012 15.945 0.012 0 0.024 0 0.036 0h705.66c0 0 0 0 0 0 8.813 0 15.959-7.135 15.978-15.943v-0.002l0.134-927.98c-0.402-8.504-7.395-15.246-15.961-15.246s-15.559 6.742-15.96 15.21l-0.001 0.036-0.134 912.001h-673.756l0.134-960.037h737.972v336.030c0.402 8.504 7.395 15.246 15.961 15.246s15.559-6.742 15.96-15.21l0.001-0.036v-352.025c-0.019-8.847-7.196-16.012-16.045-16.012-0.006 0-0.012 0-0.018 0h0.001zM144.409 223.893c-0.155-0.005-0.336-0.008-0.519-0.008-8.843 0-16.012 7.169-16.012 16.012s7.169 16.012 16.012 16.012c0.182 0 0.364-0.003 0.545-0.009l-0.026 0.001h291.355c0.155 0.005 0.336 0.008 0.519 0.008 8.843 0 16.012-7.169 16.012-16.012s-7.169-16.012-16.012-16.012c-0.182 0-0.364 0.003-0.545 0.009l0.026-0.001zM144.409 319.88c-0.31-0.021-0.672-0.034-1.036-0.034-8.834 0-15.995 7.161-15.995 15.995s7.161 15.995 15.995 15.995c0.365 0 0.726-0.012 1.085-0.036l-0.049 0.003h450.75c0.31 0.021 0.672 0.034 1.036 0.034 8.834 0 15.995-7.161 15.995-15.995s-7.161-15.995-15.995-15.995c-0.365 0-0.726 0.012-1.085 0.036l0.049-0.003zM144.409 415.918c-0.31-0.021-0.672-0.034-1.036-0.034-8.834 0-15.995 7.161-15.995 15.995s7.161 15.995 15.995 15.995c0.365 0 0.726-0.012 1.085-0.036l-0.049 0.003h450.75c0.31 0.021 0.672 0.034 1.036 0.034 8.834 0 15.995-7.161 15.995-15.995s-7.161-15.995-15.995-15.995c-0.365 0-0.726 0.012-1.085 0.036l0.049-0.003zM144.409 511.938c-0.31-0.021-0.672-0.034-1.036-0.034-8.834 0-15.995 7.161-15.995 15.995s7.161 15.995 15.995 15.995c0.365 0 0.726-0.012 1.085-0.036l-0.049 0.003h450.75c0.31 0.021 0.672 0.034 1.036 0.034 8.834 0 15.995-7.161 15.995-15.995s-7.161-15.995-15.995-15.995c-0.365 0-0.726 0.012-1.085 0.036l0.049-0.003zM144.409 608.043c-0.31-0.021-0.672-0.034-1.036-0.034-8.834 0-15.995 7.161-15.995 15.995s7.161 15.995 15.995 15.995c0.365 0 0.726-0.012 1.085-0.036l-0.049 0.003h450.75c0.31 0.021 0.672 0.034 1.036 0.034 8.834 0 15.995-7.161 15.995-15.995s-7.161-15.995-15.995-15.995c-0.365 0-0.726 0.012-1.085 0.036l0.049-0.003zM144.409 704.063c-0.219-0.011-0.475-0.017-0.733-0.017-8.825 0-15.978 7.154-15.978 15.978s7.154 15.978 15.978 15.978c0.258 0 0.514-0.006 0.769-0.018l-0.036 0.001h450.75c0.219 0.011 0.475 0.017 0.733 0.017 8.825 0 15.978-7.154 15.978-15.978s-7.154-15.978-15.978-15.978c-0.258 0-0.514 0.006-0.769 0.018l0.036-0.001zM144.409 800.050c-0.31-0.021-0.672-0.034-1.036-0.034-8.834 0-15.995 7.161-15.995 15.995s7.161 15.995 15.995 15.995c0.365 0 0.726-0.012 1.085-0.036l-0.049 0.003h450.75c0.31 0.021 0.672 0.034 1.036 0.034 8.834 0 15.995-7.161 15.995-15.995s-7.161-15.995-15.995-15.995c-0.365 0-0.726 0.012-1.085 0.036l0.049-0.003z" />
<glyph unicode="&#xe902;" glyph-name="clock" d="M131.365 67.291h-0.146c-81.11 81.079-131.28 193.104-131.28 316.848 0 241.619 191.276 438.564 430.666 447.671l0.829 0.025c0.161 0.006 0.35 0.009 0.539 0.009 8.606 0 15.619-6.826 15.917-15.36l0.001-0.027v-128.75c0-8.837-7.163-16-16-16v0h-0.347c-151.735-9.073-271.354-134.344-271.354-287.553 0-159.078 128.958-288.037 288.037-288.037 147.814 0 269.623 111.342 286.132 254.732l0.125 1.333h-302.482c-8.83 0-15.99 7.153-16 15.981v223.964c0 8.837 7.163 16 16 16s16-7.163 16-16v0-207.963h304.165c0.002 0 0.004 0 0.007 0 8.837 0 16-7.163 16-16 0-1.65-0.25-3.242-0.714-4.74l0.030 0.113c-11.115-167.666-149.837-299.455-319.34-299.455-176.731 0-320 143.269-320 320 0 165.409 125.5 301.505 286.474 318.265l1.378 0.116v96.622c-215.591-17.234-384.017-196.434-384.017-414.972 0-114.882 46.543-218.893 121.802-294.206l-0.003 0.003c75.316-75.324 179.368-121.914 294.302-121.914 224.425 0 407.36 177.637 415.873 399.978l0.024 0.775c0.319 8.556 7.332 15.37 15.936 15.37 8.807 0 15.946-7.139 15.946-15.946 0-0.203-0.004-0.404-0.011-0.605l0.001 0.029c-9.113-240.235-206.066-431.531-447.697-431.531-123.716 0-235.719 50.147-316.792 131.224v0zM560.475 479.397h-0.421c0 0 0 0 0 0-8.837 0-16 7.163-16 16 0 0.013 0 0.026 0 0.039v-0.002 448.238c0.021 8.831 7.184 15.982 16.018 15.982 0.006 0 0.013 0 0.019 0h2.157c5.595 0.128 11.264 0.347 13.623 0.347 0.141 0 0.308 0 0.476 0 123.575 0 235.429-50.183 316.295-131.281l0.011-0.011h0.091c81.089-80.912 131.255-192.785 131.255-316.375 0-0.156 0-0.312 0-0.467v0.024l-0.091-1.829-0.274-14.062c-0.164-8.678-7.228-15.652-15.925-15.671h-128.167c-8.837 0-16 7.163-16 16v0l0.146 2.030 0.219 6.309v0.018l0.091 7.113c0 0.026 0 0.056 0 0.086 0 132.090-88.873 243.422-210.086 277.462l-2.029 0.487c-6.528 2.095-11.17 8.112-11.17 15.213 0 8.806 7.139 15.945 15.945 15.945 1.29 0 2.544-0.153 3.745-0.442l-0.109 0.022c136.717-38.343 235.345-161.748 235.611-308.23v-0.031h96.091c0 0.067 0 0.146 0 0.226 0 114.706-46.552 218.539-121.794 293.637l-0.007 0.007c-75.055 75.269-178.858 121.838-293.537 121.838-0.188 0-0.375 0-0.563 0h0.029v-416.585h176.091c8.847 0 16.018-7.172 16.018-16.018s-7.172-16.018-16.018-16.018v0z" />
<glyph unicode="&#xe903;" glyph-name="diamond" horiz-adv-x="1205" d="M597.094-62.629c-2.067 0.848-3.845 1.967-5.396 3.337l0.020-0.017-0.364 0.321-0.685 0.685-0.364 0.386q-0.471 0.514-0.921 1.092l-583.943 719.135c-3.387 3.436-5.479 8.156-5.479 13.365 0 4.718 1.716 9.036 4.559 12.363l-0.022-0.026 186.98 262.779c3.377 5.563 9.399 9.225 16.277 9.231h792.771c2.508-0.002 4.901-0.498 7.086-1.395l-0.125 0.045c0.801-0.324 1.456-0.64 2.089-0.992l-0.097 0.049h0.257c2.467-1.403 4.515-3.266 6.087-5.489l0.039-0.058 188.479-265.071-0.15-6.276c0.432-1.522 0.68-3.269 0.68-5.075 0-2.097-0.335-4.116-0.954-6.006l0.039 0.136-0.129-5.997-585.036-720.762c-0.538-0.692-1.1-1.308-1.705-1.877l-0.008-0.008c-3.377-3.238-7.965-5.235-13.020-5.247h-0.002c-2.511 0.003-4.903 0.507-7.083 1.416l0.122-0.045zM604.076 5.438l203.601 506.474c2.712 7.282 9.604 12.375 17.686 12.375 10.398 0 18.827-8.429 18.827-18.827 0-2.75-0.59-5.362-1.649-7.717l0.048 0.119-174.536-434.252 481.479 592.982h-35.79c-9.849 0.764-17.552 8.944-17.552 18.923s7.703 18.159 17.487 18.919l0.065 0.004h38.874l-147.528 207.563-17.713-43.864c-2.571-7.541-9.593-12.869-17.859-12.869-10.398 0-18.827 8.429-18.827 18.827 0 2.949 0.678 5.74 1.887 8.226l-0.049-0.112 20.005 49.84h-320.629l153.675-144.080c3.686-3.47 5.982-8.382 5.982-13.829 0-4.977-1.916-9.507-5.051-12.891l0.011 0.012c-3.439-3.687-8.326-5.986-13.749-5.986-4.966 0-9.482 1.927-12.841 5.075l0.010-0.010-175.843 164.919-235.342-220.821h367.428c10.203-0.354 18.339-8.71 18.339-18.966s-8.136-18.612-18.307-18.965l-0.032-0.001h-393.879zM540.036 63.695l-238.341 592.896h-243.096zM286.446 694.437l-83.402 207.542-147.549-207.542zM323.371 703.625l232.901 218.422h-320.672zM916.545 544.81c-3.628 1.864-6.506 4.756-8.304 8.289l-0.049 0.107-35.126 70.037-69.759 35.34c-6.19 3.205-10.348 9.561-10.348 16.888s4.158 13.684 10.242 16.838l0.105 0.050 69.759 35.318 35.061 70.144c3.164 6.208 9.508 10.386 16.828 10.386 3.088 0 6.001-0.743 8.573-2.061l-0.106 0.049c3.629-1.846 6.503-4.734 8.283-8.268l0.049-0.107 35.169-70.080 69.759-35.318c6.204-3.194 10.374-9.554 10.374-16.888s-4.17-13.694-10.268-16.839l-0.106-0.050-69.759-35.34-35.169-70.037c-3.134-6.227-9.474-10.424-16.794-10.424-3.094 0-6.012 0.75-8.584 2.077l0.105-0.049zM903.844 705.146c-1.851-3.631-4.718-6.519-8.226-8.346l-0.105-0.050-41.958-21.204 41.958-21.247c3.621-1.867 6.491-4.758 8.282-8.288l0.049-0.107 21.118-42.151 21.118 42.151c1.851 3.631 4.718 6.519 8.226 8.346l0.105 0.050 41.958 21.247-41.958 21.204c-3.609 1.882-6.475 4.769-8.281 8.288l-0.050 0.108-21.118 42.129z" />
<glyph unicode="&#xe904;" glyph-name="enegy" d="M221.867 465.067l-51.2-85.333h51.2zM273.067 379.733h-51.2v-85.333zM972.8 533.333h-204.8c-28.242-0.087-51.113-22.958-51.2-51.192v-375.475c0.087-28.242 22.958-51.113 51.192-51.2h51.208v-51.2c0-9.426 7.641-17.067 17.067-17.067v0h17.067v-17.067h-324.267v648.533h34.133c9.426 0 17.067 7.641 17.067 17.067v0 51.2h290.133c5.139 0.040 9.75 2.264 12.958 5.788l0.013 0.014c2.555 2.979 4.109 6.881 4.109 11.146 0 0.885-0.067 1.754-0.196 2.603l0.012-0.095-34.133 238.933c-1.213 8.341-8.314 14.676-16.896 14.677h-648.533c-8.582-0.001-15.683-6.336-16.885-14.585l-0.011-0.092-34.133-238.933c-0.117-0.754-0.184-1.623-0.184-2.508 0-4.265 1.555-8.166 4.129-11.169l-0.019 0.023c3.221-3.538 7.832-5.762 12.963-5.803h290.14v-51.2c0-9.426 7.641-17.067 17.067-17.067v0h34.133v-648.533h-256v187.733h68.267v34.133h-34.133v34.133h119.467c28.242 0.087 51.113 22.958 51.2 51.192v204.808c-0.087 28.242-22.958 51.113-51.192 51.2h-341.341c-28.242-0.087-51.113-22.958-51.2-51.192v-204.808c0.087-28.242 22.958-51.113 51.192-51.2h119.475v-34.133h-34.133v-34.133h68.267v-204.8c0-9.426 7.641-17.067 17.067-17.067v0h648.533c9.426 0 17.067 7.641 17.067 17.067v0 34.133h17.067c9.426 0 17.067 7.641 17.067 17.067v0 51.2h51.2c28.242 0.087 51.113 22.958 51.2 51.192v375.475c-0.087 28.242-22.958 51.113-51.192 51.2h-0.008zM51.2 260.267c-9.426 0-17.067 7.641-17.067 17.067v0 204.8c0 9.426 7.641 17.067 17.067 17.067v0h341.333c9.426 0 17.067-7.641 17.067-17.067v0-204.8c0-9.426-7.641-17.067-17.067-17.067v0zM204.8 192v34.133h34.133v-34.133zM850.773 721.067h-169.984l-5.973 51.2h168.619zM838.485 806.4h-167.595l-6.144 51.2h166.4zM821.419 925.867l4.949-34.133h-165.547l-3.925 34.133zM401.579 925.867h220.843l4.096-34.133h-229.035zM393.557 857.6h236.885l5.973-51.2h-248.832zM343.211 721.067h-169.984l7.339 51.2h168.619zM353.109 806.4h-167.595l7.339 51.2h166.4zM363.179 891.733h-165.547l4.949 34.133h164.523zM377.515 721.067l5.973 51.2h257.024l5.973-51.2zM477.867 652.8v34.133h68.267v-34.133zM887.467 21.333h-34.133v34.133h34.133zM989.867 106.667c0-9.426-7.641-17.067-17.067-17.067v0h-204.8c-9.426 0-17.067 7.641-17.067 17.067v0 375.467c0 9.426 7.641 17.067 17.067 17.067v0h204.8c9.426 0 17.067-7.641 17.067-17.067v0zM955.733 482.133h-170.667c-9.426 0-17.067-7.641-17.067-17.067v0-307.2c0-9.426 7.641-17.067 17.067-17.067v0h170.667c9.426 0 17.067 7.641 17.067 17.067v0 307.2c0 9.426-7.641 17.067-17.067 17.067v0zM938.667 174.933h-136.533v273.067h136.533zM870.4 396.8l-51.2-85.333h51.2zM921.6 311.467h-51.2v-85.333zM699.733 55.467l-68.267 51.2v-34.133h-34.133v102.4h-34.133v-119.467c0-9.426 7.641-17.067 17.067-17.067v0h51.2v-34.133zM324.267 55.467l68.267-51.2v34.133h51.2c9.426 0 17.067 7.641 17.067 17.067v0 119.467h-34.133v-102.4h-34.133v34.133z" />
<glyph unicode="&#xe905;" glyph-name="sola-plant" horiz-adv-x="1021" d="M1015.569 368.879c3.087 3.088 4.997 7.354 4.997 12.066s-1.91 8.978-4.997 12.066l-48.264 48.264c-3.088 3.087-7.354 4.997-12.066 4.997s-8.978-1.91-12.066-4.997l-289.621-289.621c-3.087-3.088-4.997-7.354-4.997-12.066s1.91-8.978 4.997-12.066l48.264-48.264c3.088-3.087 7.354-4.997 12.066-4.997s8.978 1.91 12.066 4.997l91.546 91.546v-81.203h-17.067c-9.426 0-17.067-7.641-17.067-17.067v0-119.467c0-9.426 7.641-17.067 17.067-17.067v0h119.467c9.426 0 17.067 7.641 17.067 17.067v0 119.467c0 9.426-7.641 17.067-17.067 17.067v0h-17.067v166.537zM713.882 115.456l-24.132 24.132 265.489 265.489 24.132-24.132zM902.827-29.867h-85.333v85.333h85.333zM868.693 89.6h-17.067v115.337l17.067 17.067zM578.56 89.6h-17.067v166.537l112.742 112.742c3.087 3.088 4.997 7.354 4.997 12.066s-1.91 8.978-4.997 12.066l-48.264 48.264c-3.088 3.087-7.354 4.997-12.066 4.997s-8.978-1.91-12.066-4.997l-289.621-289.621c-3.087-3.088-4.997-7.354-4.997-12.066s1.91-8.978 4.997-12.066l48.264-48.264c3.088-3.087 7.354-4.997 12.066-4.997s8.978 1.91 12.066 4.997l91.546 91.546v-81.203h-17.067c-9.426 0-17.067-7.641-17.067-17.067v0-119.467c0-9.426 7.641-17.067 17.067-17.067v0h119.467c9.426 0 17.067 7.641 17.067 17.067v0 119.467c0 9.426-7.641 17.067-17.067 17.067v0zM372.548 115.456l-24.132 24.132 265.489 265.489 24.132-24.132zM510.293 204.937l17.067 17.067v-132.403h-17.067zM561.493-29.867h-85.333v85.333h85.333zM271.36 89.6h-17.067v166.502l112.759 112.759c3.087 3.088 4.997 7.354 4.997 12.066s-1.91 8.978-4.997 12.066l-48.299 48.299c-3.088 3.087-7.354 4.997-12.066 4.997s-8.978-1.91-12.066-4.997l-289.621-289.621c-3.087-3.088-4.997-7.354-4.997-12.066s1.91-8.978 4.997-12.066l48.299-48.299c3.088-3.087 7.354-4.997 12.066-4.997s8.978 1.91 12.066 4.997l91.528 91.528v-81.169h-17.067c-9.426 0-17.067-7.641-17.067-17.067v0-119.467c0-9.426 7.641-17.067 17.067-17.067v0h119.467c9.426 0 17.067 7.641 17.067 17.067v0 119.467c0 9.426-7.641 17.067-17.067 17.067v0zM65.365 115.439l-24.166 24.166 265.489 265.489 24.166-24.166-156.894-156.894zM203.093 204.902l17.067 17.067v-132.369h-17.067zM254.293-29.867h-85.333v85.333h85.333zM510.293 652.8c65.98 0 119.467 53.487 119.467 119.467s-53.487 119.467-119.467 119.467c-65.98 0-119.467-53.487-119.467-119.467v0c0-65.98 53.487-119.467 119.467-119.467v0zM510.293 857.6c47.128 0 85.333-38.205 85.333-85.333s-38.205-85.333-85.333-85.333c-47.128 0-85.333 38.205-85.333 85.333v0c0 47.128 38.205 85.333 85.333 85.333v0zM493.227 960h34.133v-34.133h-34.133zM606.832 892.944l24.136 24.136 24.136-24.136-24.136-24.136zM663.893 789.333h34.133v-34.133h-34.133zM606.831 651.589l24.136 24.136 24.136-24.136-24.136-24.136zM493.227 618.667h34.133v-34.133h-34.133zM365.476 651.59l24.136 24.136 24.136-24.136-24.136-24.136zM322.56 789.333h34.133v-34.133h-34.133zM365.477 892.946l24.136 24.136 24.136-24.136-24.136-24.136z" />
<glyph unicode="&#xe906;" glyph-name="traffic-light" horiz-adv-x="751" d="M375.484 413.867c47.128 0 85.333 38.205 85.333 85.333s-38.205 85.333-85.333 85.333c-47.128 0-85.333-38.205-85.333-85.333v0c0-47.128 38.205-85.333 85.333-85.333v0zM375.484 550.4c28.277 0 51.2-22.923 51.2-51.2s-22.923-51.2-51.2-51.2c-28.277 0-51.2 22.923-51.2 51.2v0c0 28.277 22.923 51.2 51.2 51.2v0zM375.484 209.067c47.128 0 85.333 38.205 85.333 85.333s-38.205 85.333-85.333 85.333c-47.128 0-85.333-38.205-85.333-85.333v0c0-47.128 38.205-85.333 85.333-85.333v0zM375.484 345.6c28.277 0 51.2-22.923 51.2-51.2s-22.923-51.2-51.2-51.2c-28.277 0-51.2 22.923-51.2 51.2v0c0 28.277 22.923 51.2 51.2 51.2v0zM375.484 4.267c47.128 0 85.333 38.205 85.333 85.333s-38.205 85.333-85.333 85.333c-47.128 0-85.333-38.205-85.333-85.333v0c0-47.128 38.205-85.333 85.333-85.333v0zM375.484 140.8c28.277 0 51.2-22.923 51.2-51.2s-22.923-51.2-51.2-51.2c-28.277 0-51.2 22.923-51.2 51.2v0c0 28.277 22.923 51.2 51.2 51.2v0zM716.646 945.323c-1.213 8.341-8.314 14.676-16.896 14.677h-648.533c-8.582-0.001-15.683-6.336-16.885-14.585l-0.011-0.092-34.133-238.933c-0.117-0.754-0.184-1.623-0.184-2.508 0-4.265 1.555-8.166 4.129-11.169l-0.019 0.023c3.221-3.538 7.832-5.762 12.963-5.803h341.34v-34.133h-153.6c-9.426 0-17.067-7.641-17.067-17.067v0-34.133h-102.4c-0.016 0-0.036 0-0.056 0-9.426 0-17.067-7.641-17.067-17.067 0-2.146 0.396-4.199 1.119-6.090l-0.039 0.117 51.2-136.533c2.527-6.531 8.752-11.081 16.041-11.093h51.201v-51.2h-102.4c-0.016 0-0.036 0-0.056 0-9.426 0-17.067-7.641-17.067-17.067 0-2.146 0.396-4.199 1.119-6.090l-0.039 0.117 51.2-136.533c2.527-6.531 8.752-11.081 16.041-11.093h51.201v-34.133h-102.4c-0.016 0-0.036 0-0.056 0-9.426 0-17.067-7.641-17.067-17.067 0-2.146 0.396-4.199 1.119-6.090l-0.039 0.117 51.2-136.533c2.527-6.531 8.752-11.081 16.041-11.093h51.201v-51.2c0-9.426 7.641-17.067 17.067-17.067v0h341.333c9.426 0 17.067 7.641 17.067 17.067v0 51.2h51.2c7.291 0.012 13.516 4.562 16.003 10.976l0.040 0.117 51.2 136.533c0.66 1.751 1.042 3.775 1.042 5.888 0 9.449-7.641 17.114-17.081 17.152h-102.404v34.133h51.2c7.291 0.012 13.516 4.562 16.003 10.976l0.040 0.117 51.2 136.533c0.66 1.751 1.042 3.775 1.042 5.888 0 9.449-7.641 17.114-17.081 17.152h-102.404v51.2h51.2c7.291 0.012 13.516 4.562 16.003 10.976l0.040 0.117 51.2 136.533c0.66 1.751 1.042 3.775 1.042 5.888 0 9.449-7.641 17.114-17.081 17.152h-102.404v34.133c0 9.426-7.641 17.067-17.067 17.067v0h-153.6v34.133h341.333c5.139 0.040 9.75 2.264 12.958 5.788l0.013 0.014c2.555 2.979 4.109 6.881 4.109 11.146 0 0.885-0.067 1.754-0.196 2.603l0.012-0.095zM187.75 38.4h-39.424l-38.4 102.4h77.824zM187.75 243.2h-39.424l-38.4 102.4h77.824zM187.75 465.067h-39.424l-38.4 102.4h77.824zM563.217 567.467h77.824l-38.4-102.4h-39.424zM563.217 345.6h77.824l-38.4-102.4h-39.424zM563.217 140.8h77.824l-38.4-102.4h-39.424zM265.062 925.867h220.843l4.096-34.133h-229.035zM257.041 857.6h236.885l5.973-51.2h-248.832zM206.694 721.067h-169.984l7.339 51.2h168.619zM216.593 806.4h-167.595l7.339 51.2h166.4zM226.662 891.733h-165.547l4.949 34.133h164.523zM529.084 618.667v-648.533h-307.2v648.533zM240.998 721.067l5.973 51.2h257.024l5.973-51.2zM520.38 925.867h164.523l4.949-34.133h-165.547zM528.23 857.6h166.4l7.339-51.2h-167.595zM544.273 721.067l-5.973 51.2h168.619l7.339-51.2z" />
<glyph unicode="&#xe907;" horiz-adv-x="1138" d="M348.832 63.336c0 1.201-0.051 37.598 0 38.787 3.38 68.68 102.995 3.833 225.297 3.833 116.661 0 213.586 55.251 225.118-8.944 0 0 0.179-29.299 0.179-33.688 0-70.329-100.867-127.33-225.297-127.33s-225.297 57.014-225.297 127.343z" />
<glyph unicode="&#xe908;" horiz-adv-x="1138" d="M348.832 102.123c0 70.329 100.88 127.343 225.297 127.343s225.297-57.014 225.297-127.343-100.867-127.33-225.297-127.33-225.297 57.014-225.297 127.33z" />
<glyph unicode="&#xe909;" horiz-adv-x="1138" d="M574.109-12.729c115.364 0 212.813 52.593 212.813 114.846s-97.43 114.853-212.813 114.853-212.8-52.58-212.8-114.853 97.456-114.846 212.8-114.846z" />
<glyph unicode="&#xe90a;" horiz-adv-x="1138" d="M460.86 113.968c0-34.11 49.565-61.742 110.719-61.742s110.7 27.632 110.7 61.742-49.565 61.742-110.7 61.742-110.719-27.664-110.719-61.742z" />
<glyph unicode="&#xe90b;" horiz-adv-x="1138" d="M568.417 84.484l62.611 20.489-39.694 527.586-20.547-11.966z" />
<glyph unicode="&#xe90c;" horiz-adv-x="1138" d="M568.417 84.484l-55.532 18.892 39.668 527.579 18.234-10.382z" />
<glyph unicode="&#xe90d;" horiz-adv-x="1138" d="M570.781 620.585l-18.234 10.382-27.792-369.634 44.99-26.597 51.258 3.131-29.67 394.691z" />
<glyph unicode="&#xe90e;" horiz-adv-x="1138" d="M3.495 332.94c4.019-7.066 17.78-32.519 20.489-38.627 4.517-10.158 15.602-16.93 30.73-16.93h1028.549c0.769-0.066 1.665-0.104 2.569-0.104 11.984 0 22.421 6.624 27.849 16.411l0.083 0.163c2.901 6.184 16.036 31.574 20.15 38.161 4.319 6.887-1134.265 7.667-1130.419 0.926z" />
<glyph unicode="&#xe90f;" horiz-adv-x="1138" d="M1136.131 366.897c7.143-32.347-7.29-59.18-32.423-59.18h-1069.469c-25.134 0-39.611 26.833-32.443 59.18l123.369 558.29c4.733 19.42 21.509 33.783 41.803 34.809l0.108 0.004h803.821c20.394-1.039 37.16-15.398 41.828-34.502l0.064-0.311z" />
<glyph unicode="&#xe910;" horiz-adv-x="1138" d="M45.642 353.231c0.15 1.461 0.375 2.766 0.681 4.039l-0.042-0.206 123.145 557.409h798.761l123.503-557.409c0.249-1.042 0.474-2.346 0.624-3.673l0.015-0.16z" />
<glyph unicode="&#xe911;" horiz-adv-x="1138" d="M837.369 525.245h217.061l-2.115 9.583h-216.065l-15.097 129.994h202.354l-2.127 9.583h-201.345l-14.055 121.062h188.574l-2.127 9.583h-187.564l-12.701 109.384h-21.051l11.5-109.384h-203.722l-0.53 109.384h-18.764l-0.511-109.333h-203.862l11.5 109.384h-21.083l-12.656-109.384h-187.737l-2.115-9.583h188.701l-14.017-121.114h-201.441l-2.115-9.583h202.45l-15.059-129.956h-216.103l-2.127-9.583h217.125l-19.927-172.007h27.204l18.036 172.007h231.864l-0.831-172.007h24.207l-0.831 172.007h231.781l18.1-172.007h27.204zM557.747 534.828h-230.881l13.634 129.994h217.86zM558.444 674.405h-216.934l12.701 121.062h204.801zM578.965 795.468h204.673l12.72-121.062h-216.831zM580.243 534.834l-0.639 129.956h217.783l13.666-129.956z" />
<glyph unicode="&#xe912;" horiz-adv-x="1138" d="M359.629 353.231h-184.989l561.255 561.255h184.989zM1049.67 546.737l-34.091 153.863-347.369-347.369h187.947zM427.325 914.479h-257.893l-73.133-331.045z" />
<glyph unicode="&#xe913;" horiz-adv-x="684" d="M660.042 111.958c0 1.658 0.078 51.955 0 53.602-4.655 94.87-142.305 5.333-311.31 5.333-161.191 0-295.114 76.35-311.065-12.38 0 0-0.25-40.481-0.25-46.559 0-97.185 139.376-175.958 311.31-175.958s311.315 78.784 311.315 175.964z" />
<glyph unicode="&#xe914;" horiz-adv-x="684" d="M660.047 165.56c0-97.179-139.378-175.958-311.31-175.958s-311.31 78.779-311.31 175.958c0 97.179 139.378 175.958 311.31 175.958s311.31-78.779 311.31-175.958z" />
<glyph unicode="&#xe915;" horiz-adv-x="684" d="M642.788 165.56c0-87.647-131.653-158.699-294.056-158.699s-294.056 71.052-294.056 158.699c0 87.647 131.653 158.699 294.056 158.699s294.056-71.052 294.056-158.699z" />
<glyph unicode="&#xe916;" horiz-adv-x="684" d="M637.747 791.397c0 11.515-20.053 20.851-44.766 20.851s-44.782-9.331-44.782-20.851 20.053-33.304 44.782-33.304 44.766 21.789 44.766 33.304z" />
<glyph unicode="&#xe917;" horiz-adv-x="684" d="M637.747 789.385c0 11.504-20.053 30.312-44.766 30.312s-44.782-18.807-44.782-30.312 20.053-20.851 44.782-20.851 44.766 9.315 44.766 20.851z" />
<glyph unicode="&#xe918;" horiz-adv-x="684" d="M637.747 845.087c0 11.515-20.053 20.851-44.766 20.851s-44.782-9.331-44.782-20.851c0-6.13 20.053-33.293 44.782-33.293s44.766 21.778 44.766 33.293z" />
<glyph unicode="&#xe919;" horiz-adv-x="684" d="M637.747 845.092c0 11.515-20.053 30.322-44.766 30.322s-44.782-18.807-44.782-30.322 20.053-20.851 44.782-20.851 44.766 9.331 44.766 20.851z" />
<glyph unicode="&#xe91a;" horiz-adv-x="684" d="M637.747 902.822c0 11.515-20.053 20.851-44.766 20.851s-44.782-9.331-44.782-20.851 20.053-33.304 44.782-33.304 44.766 21.789 44.766 33.304z" />
<glyph unicode="&#xe91b;" horiz-adv-x="684" d="M637.747 900.816c0 11.515-20.053 30.322-44.766 30.322s-44.782-18.807-44.782-30.322 20.053-20.851 44.782-20.851 44.766 9.331 44.766 20.851z" />
<glyph unicode="&#xe91c;" horiz-adv-x="684" d="M556.904 753.381c0 11.515-20.037 20.851-44.766 20.851s-44.782-9.331-44.782-20.851 20.053-33.304 44.782-33.304 44.766 21.789 44.766 33.304z" />
<glyph unicode="&#xe91d;" horiz-adv-x="684" d="M556.904 753.386c0 11.515-20.037 30.322-44.766 30.322s-44.792-18.807-44.792-30.322 20.053-20.851 44.782-20.851 44.777 9.331 44.777 20.851z" />
<glyph unicode="&#xe91e;" horiz-adv-x="684" d="M556.904 811.116c0 11.515-20.037 20.851-44.766 20.851s-44.782-9.331-44.782-20.851 20.053-33.304 44.782-33.304 44.766 21.789 44.766 33.304z" />
<glyph unicode="&#xe91f;" horiz-adv-x="684" d="M556.904 809.104c0 11.504-20.037 30.312-44.766 30.312s-44.792-18.807-44.792-30.312 20.053-20.851 44.782-20.851 44.777 9.32 44.777 20.851z" />
<glyph unicode="&#xe920;" horiz-adv-x="684" d="M556.904 864.812c0 11.515-20.037 20.851-44.766 20.851s-44.782-9.331-44.782-20.851 20.053-33.293 44.782-33.293 44.766 21.778 44.766 33.293z" />
<glyph unicode="&#xe921;" horiz-adv-x="684" d="M556.904 864.817c0 11.515-20.037 30.322-44.766 30.322s-44.792-18.807-44.792-30.322 20.053-20.851 44.782-20.851 44.777 9.331 44.777 20.851z" />
<glyph unicode="&#xe922;" horiz-adv-x="684" d="M476.087 717.408c0 11.515-20.053 20.851-44.782 20.851s-44.766-9.331-44.766-20.851 20.037-33.304 44.766-33.304 44.782 21.768 44.782 33.304z" />
<glyph unicode="&#xe923;" horiz-adv-x="684" d="M476.087 717.372c0 11.515-20.053 30.322-44.782 30.322s-44.766-18.807-44.766-30.322 20.037-20.851 44.766-20.851 44.782 9.352 44.782 20.851z" />
<glyph unicode="&#xe924;" horiz-adv-x="684" d="M476.087 773.111c0 11.515-20.053 20.851-44.782 20.851s-44.766-9.331-44.766-20.851 20.037-33.304 44.766-33.304 44.782 21.789 44.782 33.304z" />
<glyph unicode="&#xe925;" horiz-adv-x="684" d="M476.087 773.116c0 11.515-20.053 30.322-44.782 30.322s-44.766-18.807-44.766-30.322 20.037-20.851 44.766-20.851 44.782 9.331 44.782 20.851z" />
<glyph unicode="&#xe926;" horiz-adv-x="684" d="M476.087 828.834c0 11.515-20.053 20.851-44.782 20.851s-44.766-9.331-44.766-20.851 20.037-33.304 44.766-33.304 44.782 21.778 44.782 33.304z" />
<glyph unicode="&#xe927;" horiz-adv-x="684" d="M476.087 828.834c0 11.515-20.053 30.312-44.782 30.312s-44.766-18.797-44.766-30.312 20.037-20.851 44.766-20.851 44.782 9.32 44.782 20.851z" />
<glyph unicode="&#xe928;" horiz-adv-x="684" d="M613.483 865.067l-11.765-15.169-229.237-12.166 15.727 12.307z" />
<glyph unicode="&#xe929;" horiz-adv-x="684" d="M491.819 771.062l-150.536 71.742 248.644 99.864 94.318-26.444v-17.343zM384.902 842.439l113.062-50.219 147.909 108.986-54.102 25.672z" />
<glyph unicode="&#xe92a;" horiz-adv-x="684" d="M491.819 788.394l-150.536 71.757 248.644 99.848 94.318-43.786zM375.827 856.075l114.804-59.555 161.592 119.010-60.467 28.706z" />
<glyph unicode="&#xe92b;" horiz-adv-x="684" d="M481.493 792.179l18.812 1.439 17.791 126.464-18.812-1.439z" />
<glyph unicode="&#xe92c;" horiz-adv-x="684" d="M613.483 877.995l-11.765-15.169-229.237-12.151 15.727 12.307z" />
<glyph unicode="&#xe92d;" horiz-adv-x="684" d="M509.193 915.322l145.047 9.675c4.613-3.805 9.112-7.725 13.595-11.671l-1.475-1.908-159.038-8.434c0.626 4.118 1.251 8.226 1.871 12.338z" />
<glyph unicode="&#xe92e;" horiz-adv-x="684" d="M240.574 455.639l99.494-39.486v-118.046l14.835 7.465v649.059l-119.891-60.284-158.194-725.617 14.074 4.102 29.066 133.235zM124.65 327.476l34.925 160.3 71.46-28.352zM276.338 765.938l63.527-25.203-77.512-96.121-63.13 25.021 0.182 0.876zM204.070 691.918l20.611 94.5 42.113-16.717zM250.713 630.154l-82.36-102.168 27.059 124.092zM287.994 780.382l52.074 64.569v-85.232zM340.068 725.352v-111.551l-68.166 27.022zM340.068 594.645l-97.393-120.788-79.274 31.464 0.276 1.293 96.58 119.766 79.811-31.672zM340.068 934.88v-74.327l-61.619-76.381-49.942 19.808 18.312 83.992zM252.22 470.078l87.849 108.944v-143.822z" />
<glyph unicode="&#xe92f;" horiz-adv-x="684" d="M246.142 447.56l99.51-39.475v-118.030l14.835 7.465v649.059l-119.891-60.284-156.666-718.518 12.562-2.992 29.045 133.23zM130.202 319.422l34.925 160.3 71.46-28.352zM281.926 757.885l63.527-25.193-77.523-96.132-63.13 25.021 0.198 0.876zM209.658 683.865l20.6 94.531 42.129-16.717zM256.28 622.090l-82.36-102.168 27.048 124.155zM293.571 772.308l52.064 64.569v-85.201zM345.635 717.278v-111.551l-68.15 27.043zM345.635 586.581l-97.393-120.777-79.274 31.464 0.287 1.293 96.58 119.766 79.811-31.672zM345.635 926.806v-74.286l-61.603-76.402-49.942 19.808 18.312 83.992zM257.787 462.025l87.865 108.944v-143.817z" />
<glyph unicode="&#xe930;" horiz-adv-x="684" d="M589.687 306.067l29.045-133.23 13.777-2.643-157.886 724.179-119.891 60.284v-649.059l14.84-7.491v118.015l99.494 39.486zM478.61 459.429l71.46 28.352 34.951-160.3zM510.23 670.541l0.182-0.876-63.13-25.021-77.512 96.095 63.527 25.203zM442.836 769.728l42.113 16.717 20.611-94.5zM514.249 652.115l27.059-124.092-82.36 102.168zM369.572 759.719v85.232l52.074-64.569zM437.738 640.824l-68.166-27.043v111.551zM369.572 594.708l79.811 31.672 96.58-119.766 0.276-1.293-79.264-31.464-97.404 120.788zM462.821 887.982l18.312-83.992-49.942-19.808-61.619 76.371v74.327zM369.572 435.2v143.828l87.849-108.944z" />
<glyph unicode="&#xe931;" horiz-adv-x="684" d="M584.73 298.014l29.045-133.23 10.285 2.299-154.394 719.237-119.891 60.284v-649.059l14.835-7.465v118.030l99.499 39.449zM473.653 451.375l71.46 28.352 34.951-160.3zM505.273 662.488l0.182-0.876-63.13-25.021-77.512 96.101 63.527 25.203zM437.879 761.674l42.113 16.717 20.611-94.5zM509.292 644.061l27.059-124.098-82.36 102.168zM364.615 751.676v85.222l52.074-64.59zM432.781 632.77l-68.166-27.043v111.551zM364.615 586.659l79.811 31.667 96.58-119.771 0.276-1.293-79.264-31.458-97.404 120.803zM457.864 879.928l18.312-83.992-49.942-19.808-61.619 76.391v74.306zM364.615 427.168v143.817l87.849-108.944z" />
<glyph unicode="&#xe932;" horiz-adv-x="684" d="M460.455 341.513l121.846-42.978 28.993-132.401 8.809-8.21-159.059 739.858-114.631-64.147-0.068-819.919 14.887 8.559v149.843zM361.232 196.19v180.301l87.494-30.859zM424.56 690.099l77.788-27.408-63.761-108.892-77.314 27.267v0.98zM361.273 606.118v106.291l51.605-18.192zM428.996 537.447l-67.765-115.69v139.569zM434.141 706.477l42.822 73.134 20.939-95.616zM506.347 645.437l27.424-125.208-83.486 29.452zM538.462 498.81l-80.124-136.827-97.080 34.232v1.465l79.446 135.638 97.732-34.466zM454.872 880.465l18.244-83.356-50.688-86.53-61.144 21.57v94.474zM470.020 357.865l72.268 123.389 35.331-161.332z" />
<glyph unicode="&#xe933;" horiz-adv-x="684" d="M469.248 333.319l121.861-42.978 28.993-132.401 14.887 8.575-159.455 728.145-120.313-69.224-0.068-819.925 14.887 8.559v149.848zM370.057 188.016v180.301l87.494-30.859zM433.37 681.905l77.783-27.434-63.756-108.866-77.314 27.262v0.98zM370.083 597.924v106.291l51.579-18.192zM437.816 529.247l-67.765-115.69v139.569zM442.94 698.252l42.832 73.134 20.939-95.616zM515.156 637.212l27.408-125.182-83.486 29.436zM547.261 490.585l-80.129-136.806-97.080 34.232v1.465l79.446 135.644 97.742-34.466zM463.681 872.271l18.244-83.356-50.677-86.53-61.155 21.554v94.49zM478.829 349.671l72.268 123.389 35.331-161.332z" />
<glyph unicode="&#xe934;" horiz-adv-x="684" d="M347.809 171.242v-149.843l14.877-8.559-0.036 819.914-119.292 61.749-153.033-736.548 7.423 7.334 28.993 132.401 121.861 42.963zM260.289 344.756l87.494 30.859 0.026-180.301zM347.773 581.165v-0.98l-77.314-27.267-63.761 108.872 77.799 27.434zM296.167 693.341l51.579 18.192v-106.291zM347.773 560.45v-139.569l-67.765 115.69zM211.139 683.093l20.939 95.616 42.832-73.134zM258.767 548.805l-83.486-29.436 27.413 125.182zM170.605 497.987l97.742 34.456 79.43-135.638v-1.449l-97.080-34.247-80.103 136.801zM347.757 825.753v-94.479l-61.16-21.565-50.672 86.53 18.244 83.356zM131.432 319.047l35.331 161.332 72.268-123.389z" />
<glyph unicode="&#xe935;" horiz-adv-x="684" d="M340.381 163.918v-149.843l14.887-8.559-0.052 819.919-120.313 69.224-159.455-728.151 14.877-8.575 28.993 132.401 121.861 42.978zM252.861 337.437l87.51 30.859v-180.301zM340.36 573.852v-0.98l-77.356-27.267-63.735 108.866 77.809 27.434zM288.755 686.028l51.605 18.192v-106.291zM340.36 553.137v-139.569l-67.765 115.69zM203.726 675.775l20.939 95.616 42.822-73.134zM251.344 541.471l-83.47-29.436 27.408 125.182zM163.182 490.653l97.737 34.466 79.446-135.638v-1.465l-97.075-34.237-80.124 136.806zM340.334 818.43v-94.49l-61.171-21.565-50.677 86.53 18.244 83.356zM124.009 311.723l35.331 161.332 72.258-123.389z" />
<glyph unicode="&#xe936;" horiz-adv-x="684" d="M234.898 894.654l119.891-69.125 120.767 69.125-120.808 60.003z" />
<glyph unicode="&#xe937;" horiz-adv-x="684" d="M259.408 600.655c0 11.515-20.037 20.851-44.766 20.851s-44.766-9.331-44.766-20.851 20.037-33.304 44.766-33.304 44.766 21.789 44.766 33.304z" />
<glyph unicode="&#xe938;" horiz-adv-x="684" d="M259.408 598.643c0 11.515-20.037 30.312-44.766 30.312s-44.766-18.797-44.766-30.312 20.037-20.851 44.766-20.851 44.766 9.336 44.766 20.851z" />
<glyph unicode="&#xe939;" horiz-adv-x="684" d="M259.408 654.351c0 11.515-20.037 20.851-44.766 20.851s-44.766-9.346-44.766-20.851c0-6.13 20.037-33.293 44.766-33.293s44.766 21.778 44.766 33.293z" />
<glyph unicode="&#xe93a;" horiz-adv-x="684" d="M259.408 654.351c0 11.515-20.037 30.322-44.766 30.322s-44.766-18.807-44.766-30.322 20.037-20.851 44.766-20.851 44.766 9.331 44.766 20.851z" />
<glyph unicode="&#xe93b;" horiz-adv-x="684" d="M259.408 712.086c0 11.515-20.037 20.851-44.766 20.851s-44.766-9.346-44.766-20.851 20.032-33.304 44.761-33.304 44.771 21.789 44.771 33.304z" />
<glyph unicode="&#xe93c;" horiz-adv-x="684" d="M259.408 710.074c0 11.515-20.037 30.322-44.766 30.322s-44.766-18.807-44.766-30.322 20.037-20.851 44.766-20.851 44.766 9.331 44.766 20.851z" />
<glyph unicode="&#xe93d;" horiz-adv-x="684" d="M178.575 562.639c0 11.515-20.053 20.851-44.782 20.851s-44.766-9.331-44.766-20.851 20.053-33.304 44.766-33.304 44.782 21.789 44.782 33.304z" />
<glyph unicode="&#xe93e;" horiz-adv-x="684" d="M178.575 562.645c0 11.515-20.053 30.322-44.782 30.322s-44.766-18.807-44.766-30.322 20.053-20.851 44.766-20.851 44.782 9.331 44.782 20.851z" />
<glyph unicode="&#xe93f;" horiz-adv-x="684" d="M178.575 620.375c0 11.515-20.053 20.851-44.782 20.851s-44.766-9.331-44.766-20.851 20.053-33.304 44.766-33.304 44.782 21.789 44.782 33.304z" />
<glyph unicode="&#xe940;" horiz-adv-x="684" d="M178.575 618.363c0 11.515-20.053 30.312-44.782 30.312s-44.766-18.797-44.766-30.312 20.053-20.851 44.766-20.851 44.782 9.336 44.782 20.851z" />
<glyph unicode="&#xe941;" horiz-adv-x="684" d="M178.575 674.075c0 11.515-20.053 20.851-44.782 20.851s-44.766-9.346-44.766-20.851 20.053-33.293 44.766-33.293 44.782 21.778 44.782 33.293z" />
<glyph unicode="&#xe942;" horiz-adv-x="684" d="M178.575 674.075c0 11.515-20.053 30.322-44.782 30.322s-44.766-18.802-44.766-30.322 20.053-20.851 44.766-20.851 44.782 9.331 44.782 20.851z" />
<glyph unicode="&#xe943;" horiz-adv-x="684" d="M97.732 526.63c0 11.515-20.037 20.851-44.766 20.851s-44.782-9.331-44.782-20.851 20.053-33.304 44.782-33.304 44.766 21.805 44.766 33.304z" />
<glyph unicode="&#xe944;" horiz-adv-x="684" d="M97.732 526.651c0 11.515-20.037 30.322-44.766 30.322s-44.782-18.807-44.782-30.322 20.053-20.851 44.782-20.851 44.766 9.325 44.766 20.851z" />
<glyph unicode="&#xe945;" horiz-adv-x="684" d="M97.732 582.369c0 11.515-20.037 20.851-44.766 20.851s-44.782-9.331-44.782-20.851 20.053-33.304 44.782-33.304 44.766 21.789 44.766 33.304z" />
<glyph unicode="&#xe946;" horiz-adv-x="684" d="M97.732 582.374c0 11.515-20.037 30.322-44.766 30.322s-44.782-18.807-44.782-30.322 20.053-20.851 44.782-20.851 44.766 9.331 44.766 20.851z" />
<glyph unicode="&#xe947;" horiz-adv-x="684" d="M97.732 638.092c0 11.515-20.037 20.851-44.766 20.851s-44.782-9.331-44.782-20.851 20.053-33.304 44.782-33.304 44.766 21.789 44.766 33.304z" />
<glyph unicode="&#xe948;" horiz-adv-x="684" d="M97.732 638.092c0 11.515-20.037 30.312-44.766 30.312s-44.782-18.797-44.782-30.312 20.053-20.851 44.782-20.851 44.766 9.336 44.766 20.851z" />
<glyph unicode="&#xe949;" horiz-adv-x="684" d="M57.928 610.559l-57.928 27.82v14.986l213.151 134.617 143.15-58.788v-22.811zM24.948 644.228l32.793-16.352 250.937 96.434-90.513 41.847z" />
<glyph unicode="&#xe94a;" horiz-adv-x="684" d="M141.086 645.369c-4.551-2.085-9.044-4.17-13.501-6.391l-113.824-6.041c-0.12 5.958-0.068 11.921 0.302 17.879l146.616 11.16c0.156-1.136 0.209-2.273 0.354-3.409-5.819-4.899-12.361-9.285-19.357-12.919l-0.592-0.28z" />
<glyph unicode="&#xe94b;" horiz-adv-x="684" d="M152.762 645.901l19.146 1.366 47.18 120.345-19.146-1.366z" />
<glyph unicode="&#xe94c;" horiz-adv-x="684" d="M338.072 727.953l-16.237-24.082-229.242-12.156 10.264 18.322z" />
<glyph unicode="&#xe94d;" horiz-adv-x="684" d="M57.928 625.54l-57.928 27.83 213.151 142.092 142.071-65.679zM15.502 653.293l41.237-19.068 270.537 100.307-109.111 50.448z" />
<glyph unicode="&#xe94e;" horiz-adv-x="684" d="M152.762 664.364l19.146 1.371 47.18 120.345-19.146-1.366z" />
<glyph unicode="&#xe94f;" horiz-adv-x="684" d="M333.594 736.815l-11.765-15.169-229.237-12.156 15.727 12.307z" />
<glyph unicode="&#xe950;" horiz-adv-x="684" d="M141.378 657.098l-127.324-6.365c0.12 1.793 0.182 3.571 0.365 5.359 0.060 0.615 0.095 1.329 0.095 2.051 0 1.019-0.069 2.022-0.201 3.005l0.013-0.115 1.647 1.282 143.233 9.539c0.761-4.379-17.749-14.684-17.827-14.757z" />
<glyph unicode="&#xe951;" horiz-adv-x="684" d="M516.24 906.878l135.206 9.013 0.792-0.375-20.136-14.83-117.608-6.255z" />
<glyph unicode="&#xe952;" horiz-adv-x="456" d="M56.299 48.9c0 1.063-0.059 33.345 0 34.381 2.983 60.882 91.307 3.425 199.745 3.425 103.423 0 189.35 48.995 199.587-7.944 0 0 0.158-25.964 0.158-29.862 0-62.36-89.432-112.9-199.745-112.9s-199.745 50.558-199.745 112.9z" />
<glyph unicode="&#xe953;" horiz-adv-x="456" d="M455.789 83.29c0-62.353-89.429-112.9-199.745-112.9s-199.745 50.547-199.745 112.9c0 62.353 89.429 112.9 199.745 112.9s199.745-50.547 199.745-112.9z" />
<glyph unicode="&#xe954;" horiz-adv-x="456" d="M256.039-18.529c102.288 0 188.674 46.62 188.674 101.837s-86.404 101.837-188.674 101.837-188.687-46.62-188.687-101.837 86.399-101.837 188.687-101.837z" />
<glyph unicode="&#xe955;" horiz-adv-x="456" d="M155.617 93.785c0-30.236 43.943-54.744 98.156-54.744s98.156 24.509 98.156 54.744-43.943 54.731-98.156 54.731-98.156-24.509-98.156-54.731z" />
<glyph unicode="&#xe956;" horiz-adv-x="456" d="M255.85 75.044l36.585 11.977-23.188 606.066-12.013-6.993z" />
<glyph unicode="&#xe957;" horiz-adv-x="456" d="M255.85 75.044l-32.444 11.053 23.188 606.066 10.657-6.070z" />
<glyph unicode="&#xe958;" horiz-adv-x="456" d="M246.577 692.15l12.013 6.993 10.657-6.070-12.013-7.011z" />
<glyph unicode="&#xe959;" horiz-adv-x="456" d="M326.821 763.806c-15.050 28.388-54.55 26.653-59.66 25.234l50.81-86.305c4.263 5.114 23.9 32.674 8.85 61.071z" />
<glyph unicode="&#xe95a;" horiz-adv-x="456" d="M324.122 717.294c1.275 21.323-14.352 50.256-34.891 64.631-10.846 7.584-19.322 9.31-26.279 7.421-15.965-5.096-19.016-10.022-19.016-10.022 2.859 2.711 6.664 4.45 10.871 4.675l0.043 0.002c8.522-0.050 16.344-3.004 22.538-7.921l-0.076 0.058c20.552-14.361 36.179-43.299 34.904-64.631-0.374-6.308-2.825-17.15-13.275-19.876 8.807 1.307 16.328 5.987 21.339 12.659l0.060 0.084c2.259 3.689 3.648 8.129 3.78 12.882l0.001 0.036z" />
<glyph unicode="&#xe95b;" horiz-adv-x="456" d="M277.502 776.035c-6.194 4.912-14.11 7.896-22.722 7.944h-0.011c-3.581-0.163-6.845-1.402-9.507-3.398l0.044 0.032c-0.451-0.36-27.613-11.175-73.219-44.078-20.228-14.586 50.743-92.586 57.15-89.22 2.136 1.131 54.573 23.986 78.406 48.472 3.23 3.928 5.189 9.008 5.189 14.545 0 0.114-0.001 0.228-0.002 0.342v-0.017c1.284 21.557-14.537 50.833-35.328 65.379z" />
<glyph unicode="&#xe95c;" horiz-adv-x="456" d="M293.061 761.368c-4.533 5.569-9.649 10.402-15.326 14.506l-0.234 0.161c-6.194 4.912-14.11 7.896-22.722 7.944h-0.011c-3.581-0.163-6.845-1.402-9.507-3.398l0.044 0.032c-0.451-0.36-27.613-11.175-73.219-44.078-7.741-5.583-2.1-20.453 8.133-36.499 43.365 18.683 80.44 39.201 115.211 62.853l-2.37-1.521z" />
<glyph unicode="&#xe95d;" horiz-adv-x="456" d="M202.985 670.228c12.351-14 23.842-24.18 26.239-22.927 2.136 1.131 54.573 23.986 78.406 48.472 3.23 3.928 5.189 9.008 5.189 14.545 0 0.114-0.001 0.228-0.002 0.342v-0.017c0.024 0.611 0.037 1.329 0.037 2.050 0 6.26-1.018 12.282-2.897 17.91l0.115-0.399c-39.572-30.939-101.945-57.682-107.087-59.976z" />
<glyph unicode="&#xe95e;" horiz-adv-x="456" d="M241.242 669.624c0 21.489-17.425 49.603-38.901 62.801-11.346 6.962-19.953 8.192-26.825 5.858-15.726-6.070-18.475-11.198-18.475-11.198 2.727 2.908 6.439 4.865 10.601 5.337l0.079 0.007c0.599 0.035 1.299 0.055 2.004 0.055 7.864 0 15.152-2.47 21.129-6.675l-0.117 0.078c21.489-13.198 38.901-41.312 38.901-62.788 0-6.372-1.802-17.389-12.135-20.728 8.72 1.834 16.005 6.945 20.653 13.956l0.075 0.121c1.905 3.567 3.025 7.802 3.025 12.298 0 0.309-0.005 0.616-0.016 0.922l0.001-0.044z" />
<glyph unicode="&#xe95f;" horiz-adv-x="456" d="M190.724 725.941c-5.913 4.162-13.264 6.652-21.196 6.652-0.709 0-1.413-0.020-2.111-0.059l0.097 0.004c-9.693-1.185-16.010-8.769-16.010-21.737 0-21.661 17.574-50.017 39.203-63.31 15.244-9.355 28.429-8.733 34.927-0.023 2.71 3.932 4.328 8.799 4.328 14.043 0 0.394-0.009 0.785-0.027 1.175l0.002-0.055c0.018 21.661-17.542 50.008-39.212 63.31z" />
<glyph unicode="&#xe960;" horiz-adv-x="456" d="M200.687 658.949c-18.43 11.31-33.345 35.413-33.345 53.839-0.013 0.28-0.021 0.608-0.021 0.937 0 4.464 1.376 8.606 3.726 12.027l-0.047-0.072c-8.237-1.005-13.617-7.458-13.617-18.475 0-18.416 14.938-42.528 33.345-53.839 12.973-7.953 24.18-7.435 29.704-0.023-0.516-0.030-1.12-0.047-1.727-0.047-6.743 0-12.992 2.116-18.119 5.72l0.1-0.067z" />
<glyph unicode="&#xe961;" horiz-adv-x="456" d="M190.724 720.074c-5.026 3.537-11.275 5.653-18.018 5.653-0.606 0-1.208-0.017-1.806-0.051l0.083 0.004c-2.304-3.348-3.68-7.491-3.68-11.955 0-0.33 0.008-0.657 0.022-0.983l-0.002 0.046c0-18.43 14.938-42.528 33.345-53.839 5.029-3.542 11.282-5.661 18.030-5.661 0.602 0 1.2 0.017 1.794 0.050l-0.082-0.004c2.307 3.351 3.684 7.498 3.684 11.966 0 0.331-0.008 0.659-0.022 0.986l0.002-0.046c0.018 18.412-14.92 42.524-33.349 53.834z" />
<glyph unicode="&#xe962;" horiz-adv-x="456" d="M191.481 709.855c-3.402 2.397-7.632 3.831-12.198 3.831-0.411 0-0.818-0.012-1.223-0.034l0.056 0.003c-5.828-2.503-10.854-5.502-15.419-9.064l0.153 0.115c-2.532-3.231-4.668-32.214-0.577-38.811 3.785-6.101 28.654-12.166 36.305-8.656 0.622 0.293 12.748 7.029 13.027 7.412 1.558 2.264 2.489 5.064 2.489 8.083 0 0.229-0.005 0.456-0.016 0.682l0.001-0.032c0 12.473-10.112 28.807-22.598 36.472z" />
<glyph unicode="&#xe963;" horiz-adv-x="456" d="M181.297 709.706c0.309 0.017 0.671 0.026 1.035 0.026 4.638 0 8.917-1.542 12.35-4.141l-0.051 0.037c1.253-0.825 4.556-2.091 5.772-3.087 1.55 23.107-0.712 58.881-3.028 100.485-4.384 78.406-14.622 148.367-22.868 156.257s-11.4-49.287-7.016-127.702c2.244-45.275 6.824-87.308 13.707-128.562l-0.883 6.407c0.267 0.1 0.595 0.197 0.933 0.27l0.050 0.009z" />
<glyph unicode="&#xe964;" horiz-adv-x="456" d="M167.333 705.096c0.327 0.020 0.709 0.031 1.094 0.031 4.554 0 8.74-1.579 12.039-4.22l-0.038 0.030c1.326-0.94 2.482-1.868 3.582-2.857l-0.035 0.031c2.979 27.83 4.678 60.116 4.678 92.799 0 3.238-0.017 6.472-0.050 9.702l0.004-0.492c0 79.852-6.308 151.102-14.145 159.136s-14.149-50.202-14.149-130.054c-0.018-2.376-0.029-5.185-0.029-7.997 0-40.997 2.199-81.48 6.485-121.339l-0.431 4.946c0.265 0.098 0.598 0.196 0.939 0.273l0.057 0.011z" />
<glyph unicode="&#xe965;" horiz-adv-x="456" d="M174.056 947.96c4.655-4.272 8.814-26.473 11.716-58.236-2.586 37.761-6.678 64.779-11.31 69.533-3.934 4.055-7.48-8.724-10.044-32.552 2.668 16.348 6.011 24.599 9.638 21.255z" />
<glyph unicode="&#xe966;" horiz-adv-x="456" d="M198.114 662.162c2.032-2.564 8.215 1.289 10.815 6.759 0.644 1.352 2.767 4.348 3.289 5.795 12.892-13.933 40.915-52.653 59.854-81.082 35.706-53.622 62.247-105.591 59.3-116.121s-34.282 24.396-69.988 77.996c-21.859 32.836-52.194 79.095-62.504 101.558 0.306 0.171-3.456 8.507-0.766 5.096z" />
<glyph unicode="&#xe967;" horiz-adv-x="456" d="M182.59 658.4c3.321 2.091 9.684-1.163 12.112 4.236 0.599 1.352 1.072 2.744 1.55 4.168 23.112-23.646 45.057-48.765 65.55-75.071l1.487-1.983c40.104-51.658 70.565-101.918 68.042-112.246s-37.040 23.161-77.13 74.801c-24.549 31.669-60.598 83.894-72.584 105.622 0.315 0.171 0.644 0.27 0.973 0.473z" />
<glyph unicode="&#xe968;" horiz-adv-x="456" d="M325.329 484.565c1.739 5.817-5.921 22.927-19.435 45.376 16.79-26.135 26.928-46.304 25.437-52.415-1.253-5.195-10.643 0.712-24.756 14.419 10.45-8.796 17.389-11.937 18.754-7.381z" />
<glyph unicode="&#xe969;" horiz-adv-x="456" d="M182.113 700.829c0.689-4.533-4.001-10.269-0.284-15.14 0.901-1.208 15.199-13.108 16.222-14.203-82.596-44.993-189.255-65.478-197.023-58.507s33.976 32.894 89.22 56.484c33.818 14.419 70.078 28.158 91.784 32.642 0.036-0.428 0.014-0.838 0.081-1.275z" />
<glyph unicode="&#xe96a;" horiz-adv-x="456" d="M172.862 691.92c0.825-4.407-3.515-9.796 0.239-14.645 0.928-1.199 15.118-13.185 16.145-14.284-78.207-40.78-180.495-57.006-188.214-49.999s31.682 30.7 84.214 51.658c32.155 12.824 66.69 24.883 87.49 28.496 0.036-0.419 0.036-0.816 0.126-1.226z" />
<glyph unicode="&#xe96b;" horiz-adv-x="456" d="M8.336 616.426c4.258-4.303 27.401-3.727 49.197 1.221-25.64-6.894-51.919-8.8-56.497-4.655-3.889 3.515 3.402 11.017 18.272 20.246-9.922-7.399-14.293-13.455-10.972-16.812z" />
<glyph unicode="&#xe96c;" horiz-adv-x="456" d="M180.428 702.613c-3.337 2.345-7.484 3.748-11.959 3.748-0.399 0-0.796-0.011-1.19-0.033l0.055 0.002c-3.835-0.387-6.973-2.997-8.128-6.507l-0.019-0.067c-0.586-1.627-5.953-30.416-1.956-36.882s39.243-9.49 42.916-4.565c1.529 2.222 2.443 4.972 2.443 7.935 0 0.22-0.005 0.44-0.015 0.658l0.001-0.031c0 12.238-9.909 28.24-22.147 35.742z" />
<glyph unicode="&#xe96d;" horiz-adv-x="456" d="M161.682 663.334c-1.016-0.498-2.215-0.949-3.459-1.287l-0.146-0.034c6.462-5.772 38.599-8.386 42.091-3.695 1.529 2.222 2.443 4.972 2.443 7.935 0 0.22-0.005 0.44-0.015 0.658l0.001-0.031c-0.312 6.38-2.182 12.263-5.235 17.355l0.094-0.169c-10.346-7.91-22.118-14.854-34.685-20.311l-1.089-0.421z" />
<glyph unicode="&#xe96e;" glyph-name="Battery-Solar-Power" horiz-adv-x="1229" d="M1208.32 755.2h-266.24v143.36c-0.104 33.89-27.55 61.336-61.43 61.44h-532.49c-33.89-0.104-61.336-27.55-61.44-61.43v-143.37h-266.24c-11.311 0-20.48-9.169-20.48-20.48v0-778.24c0-11.311 9.169-20.48 20.48-20.48v0h1187.84c11.311 0 20.48 9.169 20.48 20.48v0 778.24c0 11.311-9.169 20.48-20.48 20.48v0zM327.68 898.56c0 11.311 9.169 20.48 20.48 20.48v0h532.48c11.311 0 20.48-9.169 20.48-20.48v0-143.36h-40.96v122.88c0 11.311-9.169 20.48-20.48 20.48v0h-450.56c-11.311 0-20.48-9.169-20.48-20.48v0-122.88h-40.96zM819.2 857.6v-102.4h-409.6v102.4zM40.96 714.24h245.76v-122.88h-40.96v81.92c0 11.311-9.169 20.48-20.48 20.48v0h-122.88c-11.311 0-20.48-9.169-20.48-20.48v0-81.92h-40.96zM204.8 652.8v-61.44h-81.92v61.44zM1187.84-23.040h-1146.88v81.92h1146.88zM1187.84 99.84h-1146.88v450.56h266.24c11.311 0 20.48 9.169 20.48 20.48v0 143.36h573.44v-143.36c0-11.311 9.169-20.48 20.48-20.48v0h266.24zM1024 591.36v61.44h81.92v-61.44zM1187.84 591.36h-40.96v81.92c0 11.311-9.169 20.48-20.48 20.48v0h-122.88c-11.311 0-20.48-9.169-20.48-20.48v0-81.92h-40.96v122.88h245.76zM143.36 427.52v-40.96h40.96v40.96h40.96v40.96h-40.96v40.96h-40.96v-40.96h-40.96v-40.96zM1003.52 468.48h122.88v-40.96h-122.88zM614.4 243.2c79.176 0 143.36 64.184 143.36 143.36s-64.184 143.36-143.36 143.36c-79.176 0-143.36-64.184-143.36-143.36v0c0-79.176 64.184-143.36 143.36-143.36v0zM614.4 488.96c56.554 0 102.4-45.846 102.4-102.4s-45.846-102.4-102.4-102.4c-56.554 0-102.4 45.846-102.4 102.4v0c0 56.554 45.846 102.4 102.4 102.4v0zM593.92 611.84h40.96v-40.96h-40.96zM730.254 531.366l28.963 28.963 28.963-28.963-28.963-28.963zM798.72 407.040h40.96v-40.96h-40.96zM730.252 241.739l28.963 28.963 28.963-28.963-28.963-28.963zM593.92 202.24h40.96v-40.96h-40.96zM440.626 241.741l28.963 28.963 28.963-28.963-28.963-28.963zM389.12 407.040h40.96v-40.96h-40.96zM440.628 531.368l28.963 28.963 28.963-28.963-28.963-28.963zM614.4 386.56v102.4l-61.44-102.4zM614.4 386.56v-102.4l61.44 102.4z" />
<glyph unicode="&#xe96f;" glyph-name="medal" horiz-adv-x="717" d="M358.723 757.84c-96.65 0-175-78.35-175-175s78.35-175 175-175c96.65 0 175 78.35 175 175v0c-0.118 96.603-78.398 174.883-174.989 175h-0.011zM319.396 160.317l-0.937 0.854-74.768 67.644-126.91-13.642-83.959-178.404 130.010-1.722 84.152-99.075 95.671 203.276zM600.637 215.188l-126.91 13.656-98.965-89.54 95.671-203.276 84.152 99.075 130.010 1.722zM665.194 582.84l52.211 116.547-110.746 63.565-26.264 124.994-126.992-13.642-94.693 85.695-94.707-85.667-126.992 13.642-26.264-125.022-110.746-63.593 52.211-116.547-52.211-116.547 110.746-63.593 26.264-124.994 126.923 13.669 28.703-25.837 66.018-59.762 12.595 11.396 13.78 12.512 68.25 61.732 126.923-13.628 26.264 124.994 110.746 63.593zM358.709 347.843c-129.785 0-234.997 105.212-234.997 234.997s105.212 234.997 234.997 234.997c129.785 0 234.997-105.212 234.997-234.997v0c-0.157-129.722-105.275-234.84-234.981-234.997h-0.015z" />
<glyph unicode="&#xe970;" glyph-name="Solar-electric" d="M597.333 192h-17.067v68.267h-34.133v-68.267h-68.267v68.267h-34.133v-68.267h-17.067c-9.426 0-17.067-7.641-17.067-17.067v0-68.267c0.097-50.466 36.649-92.367 84.719-100.775l0.614-0.089v-69.803h34.133v69.803c48.685 8.497 85.237 50.398 85.333 100.854v68.277c0 9.426-7.641 17.067-17.067 17.067v0zM580.267 106.667c0-37.703-30.564-68.267-68.267-68.267s-68.267 30.564-68.267 68.267v0 51.2h136.533zM273.067 192h-17.067v68.267h-34.133v-68.267h-68.267v68.267h-34.133v-68.267h-17.067c-9.426 0-17.067-7.641-17.067-17.067v0-68.267c0.097-50.466 36.649-92.367 84.719-100.775l0.614-0.089v-69.803h34.133v69.803c48.685 8.497 85.237 50.398 85.333 100.854v68.277c0 9.426-7.641 17.067-17.067 17.067v0zM256 106.667c0-37.703-30.564-68.267-68.267-68.267s-68.267 30.564-68.267 68.267v0 51.2h136.533zM921.6 192h-17.067v68.267h-34.133v-68.267h-68.267v68.267h-34.133v-68.267h-17.067c-9.426 0-17.067-7.641-17.067-17.067v0-68.267c0.097-50.466 36.649-92.367 84.719-100.775l0.614-0.089v-69.803h34.133v69.803c48.685 8.497 85.237 50.398 85.333 100.854v68.277c0 9.426-7.641 17.067-17.067 17.067v0zM904.533 106.667c0-37.703-30.564-68.267-68.267-68.267s-68.267 30.564-68.267 68.267v0 51.2h136.533zM512 652.8c65.98 0 119.467 53.487 119.467 119.467s-53.487 119.467-119.467 119.467c-65.98 0-119.467-53.487-119.467-119.467v0c0-65.98 53.487-119.467 119.467-119.467v0zM512 857.6c47.128 0 85.333-38.205 85.333-85.333s-38.205-85.333-85.333-85.333c-47.128 0-85.333 38.205-85.333 85.333v0c0 47.128 38.205 85.333 85.333 85.333v0zM494.933 960h34.133v-34.133h-34.133zM608.539 892.944l24.136 24.136 24.136-24.136-24.136-24.136zM665.6 789.333h34.133v-34.133h-34.133zM608.503 651.708l24.136 24.136 24.136-24.136-24.136-24.136zM494.933 618.667h34.133v-34.133h-34.133zM367.182 651.59l24.136 24.136 24.136-24.136-24.136-24.136zM324.267 789.333h34.133v-34.133h-34.133zM367.15 893.014l24.136 24.136 24.136-24.136-24.136-24.136zM1006.933 567.467h-989.867c-9.426 0-17.067-7.641-17.067-17.067v0-256c0-9.426 7.641-17.067 17.067-17.067v0h989.867c9.426 0 17.067 7.641 17.067 17.067v0 256c0 9.426-7.641 17.067-17.067 17.067v0zM989.867 311.467h-955.733v221.867h955.733zM187.733 499.2l-51.2-85.333h51.2zM238.933 413.867h-51.2v-85.333zM512 499.2l-51.2-85.333h51.2zM563.2 413.867h-51.2v-85.333zM836.267 499.2l-51.2-85.333h51.2zM887.467 413.867h-51.2v-85.333z" />
<glyph unicode="&#xe971;" glyph-name="Solar-Power" d="M512.017 431.616c-0.377 9.127-7.867 16.384-17.053 16.384-0.005 0-0.010 0-0.014 0h-460.799c-0.004 0-0.009 0-0.014 0-9.186 0-16.676-7.257-17.052-16.35l-0.001-0.034-17.067-375.467c-0.006-0.163-0.009-0.354-0.009-0.547 0-9.456 7.629-17.13 17.068-17.203h204.807v-68.267h-34.133v-34.133h170.667v34.133h-34.133v68.267h187.733c9.446 0.072 17.075 7.747 17.075 17.203 0 0.192-0.003 0.384-0.009 0.574l0.001-0.028zM154.3 72.533h-119.296l4.608 102.4h119.467zM160.614 209.067h-119.467l4.608 102.4h119.467zM166.758 345.6h-119.467l3.243 68.267h119.296zM204.134 413.867h120.832l3.243-68.267h-127.317zM199.356 311.467h130.389l4.608-102.4h-139.605zM290.15-29.867h-34.133v68.267h34.133zM188.604 72.533l4.608 102.4h142.677l4.608-102.4zM359.27 413.867h119.296l3.243-68.267h-119.467zM363.878 311.467h119.467l4.608-102.4h-119.467zM374.801 72.533l-4.779 102.4h119.467l4.608-102.4zM1006.95 380.587c-0.528 9.032-7.956 16.163-17.062 16.213h-409.605c-9.11-0.050-16.539-7.181-17.064-16.167l-0.002-0.047-17.067-324.267c-0.006-0.168-0.009-0.366-0.009-0.564 0-4.645 1.752-8.88 4.631-12.082l-0.015 0.016c3.152-3.264 7.567-5.291 12.455-5.291 0.001 0 0.003 0 0.004 0h170.666v-68.267h-34.133v-34.133h170.667v34.133h-34.133v68.267h170.667c0.001 0 0.002 0 0.004 0 4.888 0 9.303 2.027 12.45 5.286l0.005 0.005c2.865 3.185 4.617 7.42 4.617 12.065 0 0.198-0.003 0.396-0.010 0.593l0.001-0.029zM699.75 72.533h-118.613l3.584 68.267h115.029zM699.75 174.933h-113.152l4.437 85.333h108.715zM699.75 294.4h-106.837l3.584 68.267h103.253zM802.15-29.867h-34.133v68.267h34.133zM836.284 72.533h-102.4v68.267h102.4zM836.284 174.933h-102.4v85.333h102.4zM836.284 294.4h-102.4v68.267h102.4zM870.417 362.667h103.253l3.584-68.267h-106.837zM870.417 260.267h108.715l4.437-85.333h-113.152zM870.417 72.533v68.267h115.029l3.584-68.267zM785.084 635.733l-51.2-85.333h51.2zM836.284 550.4h-51.2v-85.333zM238.95 669.867l-51.2-85.333h51.2zM290.15 584.533h-51.2v-85.333zM512.017 652.8c65.98 0 119.467 53.487 119.467 119.467s-53.487 119.467-119.467 119.467c-65.98 0-119.467-53.487-119.467-119.467v0c0-65.98 53.487-119.467 119.467-119.467v0zM512.017 857.6c47.128 0 85.333-38.205 85.333-85.333s-38.205-85.333-85.333-85.333c-47.128 0-85.333 38.205-85.333 85.333v0c0 47.128 38.205 85.333 85.333 85.333v0zM494.95 960h34.133v-34.133h-34.133zM608.556 892.944l24.136 24.136 24.136-24.136-24.136-24.136zM665.617 789.333h34.133v-34.133h-34.133zM608.52 651.708l24.136 24.136 24.136-24.136-24.136-24.136zM494.95 618.667h34.133v-34.133h-34.133zM367.199 651.59l24.136 24.136 24.136-24.136-24.136-24.136zM324.284 789.333h34.133v-34.133h-34.133zM367.167 893.014l24.136 24.136 24.136-24.136-24.136-24.136z" />
<glyph unicode="&#xe972;" glyph-name="trophy" d="M444.49 615.734l-15.693-89.774 82.197 42.373 82.197-42.373-15.693 89.774 66.505 63.524-91.893 13.107-41.26 81.623-41.117-81.623-91.749-13.107zM837.808 882.004q0.18 19.319 0 37.992v40.003h-655.818v-40.003q0-18.673 0-37.992h-181.99v-40.003c-0.086-3.215-0.135-6.999-0.135-10.795 0-95.316 30.908-183.414 83.249-254.816l-0.845 1.209c45.462-57.265 97.621-106.48 155.966-147.489l2.36-1.572c30.365-21.708 57.067-44.343 81.787-68.967l-0.021 0.020c41.288-53.974 90.123-99.599 145.452-136.197l2.209-1.373v-66.038h-20.002c-99.341-0.102-179.852-80.575-180.015-179.892v-40.019h479.969v40.003c-0.102 99.379-80.637 179.913-180.006 180.015h-20.011v65.93c57.439 37.907 106.199 83.435 146.403 135.868l1.042 1.415c25.111 24.908 52.321 47.789 81.312 68.321l1.998 1.343c61.372 42.486 114.11 91.619 159.003 147.339l1.118 1.434c52.098 70.027 83.405 158.211 83.405 253.707 0 3.71-0.047 7.41-0.141 11.097l0.011-0.546v40.003zM81.73 801.997h102.666c3.164-87.835 17.065-171.139 40.442-250.38l-1.803 7.128c1.975-6.5 4.058-12.963 6.176-19.355-82.091 61.351-137.385 154.661-147.37 261.141l-0.111 1.467zM570.102 76.012c40.744-0.047 75.785-24.417 91.388-59.369l0.254-0.636h-303.401c15.856 35.588 50.897 59.958 91.635 60.005h0.006zM637.971 412.629c-7.252-7.829-14.103-16.322-20.355-25.266l-0.509-0.768c-31.069-36.315-66.316-67.727-105.339-93.953l-1.851-1.172c-40.858 27.357-76.092 58.723-106.571 94.284l-0.583 0.697c-6.857 9.846-13.803 18.456-21.296 26.553l0.146-0.159c-99.757 136.026-117.281 306.561-119.471 467.149h495.553c-2.047-160.911-19.607-331.41-119.831-467.364zM790.013 537.559c2.37 7.002 4.632 14.041 6.823 21.187 21.608 72.102 35.546 155.4 38.694 241.452l0.052 1.8h106.652c-10.865-109.305-67.943-203.429-151.147-263.698l-1.074-0.741z" />
<glyph unicode="&#xe973;" glyph-name="Solar-power-light" horiz-adv-x="1007" d="M872.76 669.756c-26.646 24.030-62.113 38.731-101.013 38.731-83.445 0-151.091-67.646-151.091-151.091 0-59.173 34.017-110.402 83.561-135.197l0.873-0.396v-66.112c0.107-31.029 21.243-57.091 49.895-64.686l0.469-0.106v-237.389h-402.908v16.783c0 9.269-7.514 16.783-16.783 16.783v0h-50.364v16.797h167.874c4.809 0.003 9.151 2 12.246 5.208l0.005 0.005c2.818 3.133 4.541 7.299 4.541 11.867 0 0.192-0.003 0.384-0.009 0.574l0.001-0.028-16.783 318.937c-0.503 8.906-7.829 15.942-16.807 15.98h-402.885c-8.961-0.052-16.267-7.068-16.781-15.907l-0.002-0.046-16.797-318.978c-0.006-0.167-0.009-0.363-0.009-0.56 0-4.569 1.724-8.735 4.556-11.884l-0.014 0.016c3.101-3.208 7.443-5.2 12.249-5.2 0 0 0.001 0 0.001 0h167.874v-134.294h-33.567v-33.58h167.86v33.58h-33.567v16.783h50.364c0.004 0 0.009 0 0.014 0 9.269 0 16.783 7.514 16.783 16.783 0 0.005 0 0.010 0 0.014v-0.001 16.783h419.651c9.269 0 16.783 7.514 16.783 16.783v0 254.159c29.121 7.701 50.257 33.763 50.364 64.78v66.152c50.139 25.239 83.935 76.295 83.935 135.245 0 44.737-19.464 84.927-50.386 112.565l-0.146 0.128zM151.091 137.441h-116.68l3.525 67.16h113.155zM151.091 238.168h-111.303l4.369 83.93h106.934zM151.091 355.678h-105.096l3.525 67.147h101.571zM318.965 422.825h101.557l3.525-67.147h-105.083zM318.965 322.098h106.934l4.369-83.93h-111.317zM318.965 204.587h113.141l3.471-67.147h-116.626zM184.657 422.811h100.727v-67.12h-100.727zM184.657 322.084h100.727v-83.93h-100.727zM251.804-30.461h-33.567v134.335h33.58zM184.657 137.441v67.16h100.727v-67.147zM318.951 19.93h-33.567v33.58h33.58zM772.223 322.112c-12.293 0.034-23.020 6.708-28.785 16.624l-0.086 0.159h57.741c-5.851-10.075-16.577-16.75-28.866-16.783h-0.005zM805.803 372.475h-67.174v33.58h67.188zM816.216 448.184c-3.936-1.636-7.018-4.666-8.685-8.458l-0.041-0.104h-70.509c-1.707 3.896-4.789 6.925-8.618 8.522l-0.107 0.039c-43.42 17.915-73.422 59.917-73.422 108.926 0 60.011 44.984 109.515 103.072 116.632l0.568 0.057c4.149 0.505 8.989 0.811 13.893 0.844h0.045c64.806-0.123 117.294-52.687 117.294-117.51 0-49.030-30.028-91.047-72.697-108.663l-0.781-0.285zM940.070 573.902h67.147v-33.58h-67.147zM878.871 426.487l23.745 23.745 47.48-47.48-23.745-23.745zM594.018 402.788l47.48 47.48 23.745-23.745-47.48-47.48zM537.189 573.902h67.147v-33.58h-67.147zM594.059 711.381l23.745 23.745 47.48-47.48-23.745-23.745zM755.413 792.126h33.58v-67.147h-33.58zM878.912 687.628l47.48 47.48 23.745-23.745-47.48-47.48zM856.14 540.322v-33.58h-33.58c-0.012 0-0.027 0-0.042 0-7.839 0-14.422 5.374-16.268 12.638l-0.025 0.116-9.528 38.276-12.591-12.591c-3.057-3.034-7.268-4.909-11.917-4.909s-8.86 1.875-11.918 4.91l-12.59 12.59-9.528-38.276c-1.87-7.381-8.454-12.754-16.293-12.754-0.015 0-0.029 0-0.044 0h-33.551v33.58h20.418l13.612 54.447c1.502 5.864 5.946 10.422 11.628 12.058l0.118 0.029c1.379 0.403 2.962 0.635 4.6 0.635 4.615 0 8.8-1.842 11.86-4.831l-0.003 0.003 21.656-21.779 21.656 21.779c3.056 2.986 7.241 4.828 11.857 4.828 1.638 0 3.221-0.232 4.72-0.665l-0.12 0.030c5.801-1.666 10.245-6.223 11.722-11.971l0.025-0.116 13.612-54.447zM235.021 657.832c64.899 0 117.51 52.611 117.51 117.51s-52.611 117.51-117.51 117.51c-64.899 0-117.51-52.611-117.51-117.51v0c0-64.899 52.611-117.51 117.51-117.51v0zM235.021 859.286c46.353 0 83.93-37.577 83.93-83.93s-37.577-83.93-83.93-83.93c-46.353 0-83.93 37.577-83.93 83.93v0c0 46.353 37.577 83.93 83.93 83.93v0zM218.238 960h33.58v-33.58h-33.58zM329.936 894.024l23.745 23.745 23.745-23.745-23.745-23.745zM386.098 792.126h33.58v-33.58h-33.58zM329.909 656.648l23.745 23.745 23.745-23.745-23.745-23.745zM218.238 624.266h33.58v-33.58h-33.58zM92.533 656.675l23.745 23.745 23.745-23.745-23.745-23.745zM50.364 792.126h33.58v-33.58h-33.58zM92.56 894.037l23.745 23.745 23.745-23.745-23.745-23.745z" />
<glyph unicode="&#xe974;" glyph-name="arow-bottom" d="M810.667 320l-60.16 60.16-195.84-195.413v689.92h-85.333v-689.92l-195.84 195.84-60.16-60.587 298.667-298.667 298.667 298.667z" />
<glyph unicode="&#xe975;" glyph-name="arow-right" d="M640 746.667l-60.16-60.16 195.413-195.84h-689.92v-85.333h689.92l-195.84-195.84 60.587-60.16 298.667 298.667-298.667 298.667z" />
<glyph unicode="&#xe976;" glyph-name="check" d="M512.030-63.94c-0.018 0-0.039 0-0.060 0-282.786 0-512.030 229.244-512.030 512.030s229.244 512.030 512.030 512.030c282.786 0 512.030-229.244 512.030-512.030 0-0.021 0-0.043 0-0.064v0.004c-0.342-282.615-229.354-511.628-511.937-511.97h-0.033zM512.030 888.589c-243.296-0.025-440.516-197.26-440.516-440.559 0-243.314 197.245-440.559 440.559-440.559s440.559 197.245 440.559 440.559c0 121.653-49.308 231.789-129.028 311.514v0c-79.763 79.698-189.906 129.001-311.565 129.045h-0.008zM412.163 233.737c-0.015 0-0.033 0-0.051 0-9.673 0-18.444 3.856-24.863 10.114l0.007-0.007-156.118 152.027c-7.412 6.578-12.059 16.13-12.059 26.767 0 19.736 15.999 35.736 35.736 35.736 10.307 0 19.596-4.364 26.118-11.345l0.019-0.021 129.466-126.338 295.27 329.502c6.534 6.937 15.78 11.256 26.035 11.256 19.736 0 35.736-15.999 35.736-35.736 0-8.863-3.226-16.972-8.569-23.217l0.041 0.049-320.237-357.236c-6.276-7.081-15.264-11.637-25.32-12.030l-0.068-0.002z" />
<glyph unicode="&#xe977;" glyph-name="search" horiz-adv-x="1021" d="M1011.749-9.454l-248.043 248.043c66.335 76.026 106.782 176.135 106.782 285.691 0 240.557-195.010 435.568-435.568 435.568s-435.568-195.010-435.568-435.568c0-240.557 195.010-435.568 435.568-435.568 109.556 0 209.665 40.448 286.209 107.224l-0.518-0.442 248.043-248.043c5.501-5.519 13.083-8.961 21.469-9.050h0.017c0.021 0 0.047 0 0.072 0 8.396 0 15.982 3.465 21.407 9.043l0.007 0.007c5.441 5.548 8.799 13.155 8.799 21.548s-3.358 16-8.804 21.552l0.005-0.005zM60.887 524.063c0.14 206.518 167.589 373.88 374.127 373.88 206.624 0 374.127-167.502 374.127-374.127s-167.502-374.127-374.127-374.127v0c-206.612 0.245-374.022 167.741-374.127 374.363v0.010z" />
<glyph unicode="&#xe978;" glyph-name="76" horiz-adv-x="1010" d="M497.915-64c-239.293 0.503-440.080 164.768-496.277 386.652l-0.761 3.545c-0.586 2.293-0.923 4.926-0.923 7.638 0 17.707 14.355 32.062 32.062 32.062 14.996 0 27.587-10.295 31.092-24.203l0.047-0.221c49.67-197.142 225.401-340.757 434.676-340.757 247.213 0 447.619 200.406 447.619 447.619 0 243.864-195.013 442.181-437.599 447.509l-0.497 0.009c-17.424 0.38-31.403 14.594-31.403 32.074 0 17.718 14.363 32.081 32.081 32.081 0.239 0 0.476-0.003 0.714-0.008l-0.035 0.001c277.34-7.71 499.404-233.66 500.845-511.808l0.001-0.14c-1.178-282.195-229.521-510.665-511.554-512.051l-0.133-0.001z" />
<glyph unicode="&#xe979;" glyph-name="90" horiz-adv-x="1023" d="M511.686-64c-282.652 0.252-511.689 229.444-511.689 512.131 0 139.095 55.452 265.238 145.455 357.529l-0.104-0.107c5.799 5.779 13.8 9.353 22.636 9.353 17.711 0 32.068-14.357 32.068-32.068 0-8.561-3.354-16.338-8.82-22.089l0.013 0.014c-78.828-80.636-127.463-191.077-127.463-312.877 0-247.276 200.457-447.733 447.733-447.733s447.733 200.457 447.733 447.733c0 0.062 0 0.124 0 0.185v-0.009c-1.264 243.417-195.501 441.054-437.465 447.787l-0.624 0.014c-17.424 0.38-31.403 14.594-31.403 32.074 0 17.718 14.363 32.081 32.081 32.081 0.239 0 0.476-0.003 0.714-0.008l-0.035 0.001c277.349-7.704 499.421-233.664 500.856-511.821l0.001-0.139c-1.178-282.195-229.521-510.665-511.554-512.051l-0.133-0.001z" />
<glyph unicode="&#xe97a;" glyph-name="email" horiz-adv-x="1490" d="M106.348-64c-0.113 0-0.247-0.001-0.38-0.001-28.108 0-53.712 10.721-72.946 28.297l0.083-0.075-1.986 1.821-1.903 1.903c-17.992 18.049-29.14 42.93-29.215 70.415v819.346c1.289 56.775 47.62 102.307 104.584 102.307 0.62 0 1.239-0.005 1.856-0.016l-0.093 0.001h1276.917c0.095 0 0.207 0 0.32 0 25.94 0 49.751-9.117 68.403-24.322l-0.197 0.155 1.903-1.572c21.969-18.498 35.869-45.972 36.001-76.697v-819.355c-0.075-27.705-11.39-52.753-29.622-70.837l-1.579-1.579-1.655-1.49c-19.198-17.7-44.944-28.553-73.224-28.553-0.123 0-0.246 0-0.369 0.001h0.019zM1368.616 4.195l-502.607 484.068-60.167-40.553c-17.168-11.522-38.3-18.39-61.036-18.39s-43.868 6.868-61.435 18.641l0.399-0.252-60.167 40.553-502.524-484.068zM1418.273 52.527v805.015c0 0.91 0 1.738 0 2.648l-493.255-332.533zM70.926 857.542v-805.015l493.751 475.13-493.668 332.533c-0.083-0.828-0.083-1.738-0.083-2.648zM724.737 503.326c5.714-3.839 12.748-6.128 20.318-6.128s14.604 2.289 20.45 6.212l-0.132-0.084 576.264 388.397h-1193.66z" />
<glyph unicode="&#xe97b;" glyph-name="message" horiz-adv-x="1245" d="M196.101-61.856c-10.714 4.153-18.198 14.325-18.324 26.26v143.22h-88.923c-0.5-0.010-1.090-0.016-1.681-0.016-47.481 0-86.098 37.952-87.172 85.175l-0.002 0.1v681.86c1.114 47.33 39.746 85.273 87.241 85.273 0.567 0 1.133-0.005 1.698-0.016l-0.084 0.001h1066.871c0.521 0.011 1.135 0.018 1.75 0.018 47.482 0 86.099-37.952 87.172-85.176l0.002-0.1v-681.86c-1.075-47.323-39.692-85.275-87.173-85.275-0.591 0-1.181 0.006-1.769 0.018l0.088-0.001h-757.161l-170.448-163.326c-5.4-5.114-12.701-8.267-20.738-8.298h-0.006c-4.082 0.003-7.979 0.79-11.55 2.218l0.21-0.074zM59.259 874.742v-681.86c0.384-15.779 13.267-28.424 29.103-28.424 0.173 0 0.346 0.002 0.518 0.005h118.561c0.167 0.003 0.364 0.005 0.561 0.005 15.798 0 28.65-12.614 29.033-28.32l0.001-0.036v-103.029l128.406 123.082c5.391 5.139 12.692 8.316 20.734 8.367h769.549c0.167-0.003 0.363-0.005 0.56-0.005 15.822 0 28.69 12.653 29.035 28.393l0.001 0.032v681.791c-0.346 15.772-13.213 28.425-29.035 28.425-0.197 0-0.393-0.002-0.589-0.006h-1066.842c-0.146 0.003-0.319 0.004-0.492 0.004-15.836 0-28.718-12.645-29.102-28.388l-0.001-0.036zM810.405 534.054c0.768 23.075 19.658 41.488 42.849 41.488 23.677 0 42.871-19.194 42.871-42.871 0-23.669-19.181-42.859-42.848-42.871h-0.001c-23.762 0.386-42.877 19.739-42.877 43.557 0 0.245 0.002 0.49 0.006 0.734v-0.037zM579.453 534.054c0.768 23.075 19.658 41.488 42.849 41.488 23.677 0 42.871-19.194 42.871-42.871 0-23.669-19.181-42.859-42.848-42.871h-0.001c-23.77 0.425-42.876 19.794-42.876 43.625 0 0.221 0.002 0.442 0.005 0.662v-0.033zM331.215 534.054c0.768 23.075 19.658 41.488 42.849 41.488 23.677 0 42.871-19.194 42.871-42.871 0-23.669-19.181-42.859-42.848-42.871h-0.001c-23.77 0.425-42.876 19.794-42.876 43.625 0 0.221 0.002 0.442 0.005 0.662v-0.033z" />
<glyph unicode="&#xe97c;" glyph-name="name" horiz-adv-x="1065" d="M33.218-64c-0.187-0.004-0.407-0.006-0.628-0.006-17.785 0-32.244 14.244-32.589 31.947v0.032c3.349 233.826 161.717 429.76 376.781 489.857l3.631 0.866c-78.323 47.627-130.035 132.198-130.848 228.907l-0.001 0.118c3.116 151.060 126.309 272.324 277.824 272.324 1.77 0 3.536-0.017 5.299-0.050l-0.264 0.004c1.498 0.029 3.264 0.046 5.034 0.046 151.515 0 274.708-121.264 277.819-272.033l0.005-0.291c-0.795-96.795-52.443-181.353-129.505-228.352l-1.188-0.673c218.648-61.014 376.968-256.927 380.33-490.342l0.004-0.381c-0.389-17.744-14.865-31.979-32.666-31.979-0.221 0-0.442 0.002-0.663 0.007l0.033-0.001zM67.681 0.024h929.48c-22.872 234.359-218.882 416.023-457.323 416.023-2.608 0-5.211-0.022-7.809-0.065l0.391 0.005c-2.183 0.037-4.759 0.059-7.34 0.059-238.483 0-434.528-181.699-457.251-414.213l-0.149-1.887zM316.076 687.722c2.68-115.301 96.784-207.745 212.479-207.745 1.359 0 2.716 0.013 4.069 0.038l-0.203-0.003c1.173-0.023 2.556-0.037 3.942-0.037 115.68 0 209.766 92.454 212.398 207.501l0.004 0.245c-2.38 115.497-96.569 208.213-212.413 208.213-1.383 0-2.762-0.013-4.138-0.040l0.206 0.003c-1.17 0.023-2.549 0.036-3.932 0.036-115.844 0-210.033-92.716-212.409-207.991l-0.004-0.222z" />
<glyph unicode="&#xe97d;" glyph-name="Solar-power-lamp" horiz-adv-x="649" d="M490.274 572.809c2.901 3.053 4.685 7.191 4.685 11.746 0 0.329-0.009 0.656-0.028 0.98l0.002-0.045-17.067 307.2c-0.521 9.005-7.95 16.111-17.040 16.111-0.009 0-0.019 0-0.028 0h-273.066c-0.008 0-0.017 0-0.027 0-9.089 0-16.519-7.106-17.038-16.065l-0.002-0.046-17.067-307.2c-0.017-0.286-0.027-0.62-0.027-0.956 0-9.426 7.641-17.067 17.067-17.067 0.009 0 0.019 0 0.028 0h307.199c0.002 0 0.004 0 0.006 0 4.881 0 9.284 2.049 12.394 5.334l0.007 0.008zM188.706 601.6l15.172 273.067h240.777l15.172-273.067zM221.867 840.533h204.8v-34.133h-204.8zM221.867 755.2h204.8v-34.133h-204.8zM221.867 669.867h204.8v-34.133h-204.8zM546.133 482.133h-153.6v34.133h136.533c9.446 0.072 17.075 7.747 17.075 17.203 0 0.192-0.003 0.384-0.009 0.574l0.001-0.028-17.067 409.6c-0.377 9.127-7.867 16.384-17.053 16.384-0.005 0-0.010 0-0.014 0h-375.466c-0.004 0-0.009 0-0.014 0-9.186 0-16.676-7.257-17.052-16.35l-0.001-0.034-17.067-409.6c-0.006-0.163-0.009-0.354-0.009-0.547 0-9.456 7.629-17.13 17.068-17.203h136.54v-34.133h-153.6c-9.426 0-17.067-7.641-17.067-17.067v0-51.2c0-9.426 7.641-17.067 17.067-17.067v0h102.4v-204.8c0-65.98 53.487-119.467 119.467-119.467s119.467 53.487 119.467 119.467v0 204.8h102.4c9.426 0 17.067 7.641 17.067 17.067v0 51.2c0 9.426-7.641 17.067-17.067 17.067v0zM137.216 550.4l15.701 375.467h342.699l15.701-375.467zM358.4 516.267v-34.133h-68.267v34.133zM409.6 192c0-47.128-38.205-85.333-85.333-85.333s-85.333 38.205-85.333 85.333v0 204.8h34.133v-170.667c0-28.277 22.923-51.2 51.2-51.2s51.2 22.923 51.2 51.2v0 170.667h34.133zM307.2 226.133v170.667h34.133v-170.667c0-9.426-7.641-17.067-17.067-17.067s-17.067 7.641-17.067 17.067v0zM529.067 430.933h-409.6v17.067h409.6zM307.2 4.267h34.133v-68.267h-34.133zM82.905 43.033l48.272 48.272 24.136-24.136-48.272-48.272zM0 277.333h68.267v-34.133h-68.267zM580.267 277.333h68.267v-34.133h-68.267zM493.226 67.173l24.136 24.136 48.272-48.272-24.136-24.136z" />
<glyph unicode="&#xe97e;" glyph-name="cancle" d="M617.866 473.6l398.494 398.494c13.022 12.143 21.14 29.399 21.14 48.552 0 36.63-29.694 66.324-66.324 66.324-19.152 0-36.408-8.118-48.515-21.101l-0.036-0.039-398.494-398.494-398.494 398.494c-12.143 13.022-29.399 21.14-48.552 21.14-36.63 0-66.324-29.694-66.324-66.324 0-19.152 8.118-36.408 21.101-48.515l0.039-0.036 398.494-398.494-398.494-398.494c-13.022-12.143-21.14-29.399-21.14-48.552 0-36.63 29.694-66.324 66.324-66.324 19.152 0 36.408 8.118 48.515 21.101l0.036 0.039 398.494 398.494 398.494-398.494c11.808-11.012 27.706-17.772 45.184-17.772 36.63 0 66.324 29.694 66.324 66.324 0 17.477-6.76 33.376-17.808 45.223l0.036-0.039z" />
<glyph unicode="&#xe97f;" glyph-name="tick" horiz-adv-x="1365" d="M0 404.457l467.557-468.458 897.777 896.876-128.926 127.124-768.851-767.95-340.332 340.332z" />
</font>
</defs>
</svg>
